<?xml version="1.0" encoding="UTF-8" standalone="no"?>
<svg
   id="Capa_2"
   data-name="Capa 2"
   viewBox="0 0 273.55999 323.52126"
   version="1.1"
   sodipodi:docname="udb_lobo_mini.svg"
   width="273.56"
   height="323.52127"
   inkscape:version="1.4 (e7c3feb100, 2024-10-09)"
   xmlns:inkscape="http://www.inkscape.org/namespaces/inkscape"
   xmlns:sodipodi="http://sodipodi.sourceforge.net/DTD/sodipodi-0.dtd"
   xmlns="http://www.w3.org/2000/svg"
   xmlns:svg="http://www.w3.org/2000/svg">
  <sodipodi:namedview
     id="namedview156"
     pagecolor="#ffffff"
     bordercolor="#999999"
     borderopacity="1"
     inkscape:showpageshadow="2"
     inkscape:pageopacity="0"
     inkscape:pagecheckerboard="0"
     inkscape:deskcolor="#d1d1d1"
     inkscape:zoom="2.3793669"
     inkscape:cx="80.483593"
     inkscape:cy="151.30075"
     inkscape:window-width="1039"
     inkscape:window-height="1028"
     inkscape:window-x="8"
     inkscape:window-y="40"
     inkscape:window-maximized="1"
     inkscape:current-layer="Capa_2" />
  <defs
     id="defs1">
    <style
       id="style1">
      .cls-1 {
        fill: none;
      }

      .cls-2 {
        fill: #1b448b;
      }

      .cls-3 {
        fill: #1c458b;
      }

      .cls-4 {
        fill: #ffe006;
      }

      .cls-5 {
        fill: #fff;
      }

      .cls-6 {
        fill: #a6cae6;
      }

      .cls-7 {
        fill: #ebeef9;
      }

      .cls-8 {
        fill: #274292;
      }

      .cls-9 {
        fill: #ffdc09;
      }

      .cls-10 {
        fill: #e6edf7;
      }

      .cls-11 {
        fill: #f9ae04;
      }

      .cls-12 {
        fill: #ffd002;
      }
    </style>
  </defs>
  <g
     id="Capa_1-2"
     data-name="Capa 1"
     transform="translate(0,0.00125605)">
    <g
       id="g156">
      <path
         class="cls-5"
         d="M 263.07,36.17 140.92,0.58 c -2.66,-0.77 -5.48,-0.78 -8.14,0 L 10.49,36.17 C 4.27,37.98 0,43.68 0,50.15 v 136.59 c 0,75.54 61.24,136.78 136.78,136.78 v 0 c 75.54,0 136.78,-61.24 136.78,-136.78 V 50.15 c 0,-6.47 -4.27,-12.17 -10.49,-13.98 z"
         id="path1" />
      <g
         id="g155">
        <path
           class="cls-8"
           d="m 136.69,317.72 v 0 C 63.79,317.72 4.68,258.62 4.68,185.71 V 53.89 C 4.68,47.64 8.81,42.14 14.8,40.4 L 132.83,6.05 c 2.57,-0.75 5.29,-0.75 7.86,0 L 258.58,40.4 c 6,1.75 10.12,7.24 10.12,13.49 v 131.82 c 0,72.9 -59.1,132.01 -132.01,132.01 z"
           id="path21" />
        <g
           id="g154">
          <path
             class="cls-1"
             d="m 76.33,241.55 c -1.55,-0.49 -3.09,-1.03 -4.61,-1.62 1.52,0.59 3.06,1.13 4.61,1.62 z"
             id="path22" />
          <path
             class="cls-1"
             d="m 81.98,243.14 c -0.63,-0.16 -1.26,-0.32 -1.89,-0.49 0.63,0.17 1.26,0.33 1.89,0.49 z"
             id="path23" />
          <path
             class="cls-1"
             d="m 113.76,246.25 c 0,0 -0.07,0.02 -0.1,0.03 0.03,0 0.07,-0.02 0.1,-0.03 z"
             id="path24" />
          <path
             class="cls-1"
             d="m 113.53,246.32 c 0,0 -0.06,0.02 -0.1,0.03 0.03,0 0.06,-0.02 0.1,-0.03 z"
             id="path25" />
          <path
             class="cls-1"
             d="m 113.99,246.19 c 0,0 -0.07,0.02 -0.1,0.03 0.03,0 0.07,-0.02 0.1,-0.03 z"
             id="path26" />
          <path
             class="cls-1"
             d="m 109.57,249.99 c -0.06,0.09 -0.11,0.19 -0.17,0.28 0.06,-0.09 0.11,-0.19 0.17,-0.28 z"
             id="path27" />
          <path
             class="cls-1"
             d="m 110.01,249.23 c 0,0 -0.05,0.09 -0.07,0.13 0.02,-0.04 0.05,-0.09 0.07,-0.13 z"
             id="path28" />
          <path
             class="cls-1"
             d="m 109.82,249.58 c 0,0 -0.05,0.08 -0.07,0.12 0.02,-0.04 0.05,-0.08 0.07,-0.12 z"
             id="path29" />
          <path
             class="cls-1"
             d="m 50.03,236.26 c 0.85,-0.84 1.4,-1.98 1.66,-3.5 0.08,-0.49 0.17,-0.98 0.26,-1.46 -0.09,0.49 -0.18,0.97 -0.26,1.46 -0.26,1.51 -0.81,2.66 -1.66,3.5 z"
             id="path30" />
          <path
             class="cls-1"
             d="m 114.22,246.14 c 0,0 -0.07,0.02 -0.1,0.02 0.03,0 0.07,-0.02 0.1,-0.02 z"
             id="path31" />
          <path
             class="cls-1"
             d="m 142.54,222.8 c 0,-0.07 0,-0.14 0,-0.2 0,0.07 0,0.14 0,0.2 z"
             id="path32" />
          <path
             class="cls-1"
             d="m 142.55,223.18 c 0,-0.08 0,-0.15 0,-0.23 0,0.08 0,0.15 0,0.23 z"
             id="path33" />
          <path
             class="cls-1"
             d="m 142.57,223.56 c 0,0 0,0 0,0 0,-0.07 0,-0.14 -0.01,-0.2 0,0.07 0,0.13 0.01,0.2 z"
             id="path34" />
          <path
             class="cls-1"
             d="m 147.42,226.42 c -0.01,-0.05 -0.02,-0.1 -0.03,-0.15 0.01,0.05 0.02,0.1 0.03,0.15 z"
             id="path35" />
          <path
             class="cls-1"
             d="m 147.33,226.04 c -0.02,-0.05 -0.03,-0.11 -0.05,-0.16 0.02,0.05 0.04,0.1 0.05,0.16 z"
             id="path36" />
          <path
             class="cls-1"
             d="m 147.38,226.24 c -0.01,-0.05 -0.03,-0.11 -0.04,-0.16 0.02,0.05 0.03,0.11 0.04,0.16 z"
             id="path37" />
          <path
             class="cls-1"
             d="m 114.67,246.03 c 0,0 -0.05,0.01 -0.08,0.02 0.03,0 0.05,-0.01 0.08,-0.02 z"
             id="path38" />
          <path
             class="cls-1"
             d="m 114.44,246.08 c 0,0 -0.06,0.01 -0.09,0.02 0.03,0 0.06,-0.01 0.09,-0.02 z"
             id="path39" />
          <path
             class="cls-1"
             d="m 114.91,245.98 c 0,0 -0.04,0 -0.06,0.01 0.02,0 0.04,0 0.06,-0.01 z"
             id="path40" />
          <path
             class="cls-1"
             d="m 153.97,284.88 c 0,0.06 0,0.11 0,0.17 0,-0.06 0,-0.11 0,-0.17 z"
             id="path41" />
          <path
             class="cls-1"
             d="m 155.91,286.23 c 0,0 0.02,0 0.04,-0.01 -0.01,0 -0.02,0 -0.04,0.01 z"
             id="path42" />
          <path
             class="cls-1"
             d="m 156.21,286.11 c 0.09,-0.04 0.19,-0.08 0.28,-0.12 -0.09,0.04 -0.19,0.08 -0.28,0.12 z"
             id="path43" />
          <path
             class="cls-1"
             d="m 153.97,285.22 c 0,0.05 0,0.1 0.01,0.15 0,-0.05 0,-0.1 -0.01,-0.15 z"
             id="path44" />
          <path
             class="cls-1"
             d="m 153.98,285.39 c 0,0 0.01,0.07 0.02,0.1 0,-0.03 -0.01,-0.07 -0.02,-0.1 z"
             id="path45" />
          <path
             class="cls-1"
             d="m 160.74,284.46 c -1.33,0.41 -2.65,0.88 -3.95,1.4 -0.09,0.04 -0.19,0.08 -0.28,0.12 0.09,-0.04 0.19,-0.08 0.28,-0.12 1.31,-0.52 2.62,-0.99 3.95,-1.4 z"
             id="path46" />
          <path
             class="cls-1"
             d="m 169.95,271.95 c -0.21,0 -0.33,-0.02 -0.4,-0.09 0.07,0.07 0.19,0.09 0.4,0.09 z"
             id="path47" />
          <path
             class="cls-1"
             d="m 171.24,271.91 c 0.7,0 1.4,0.02 2.1,0.07 -0.69,-0.05 -1.39,-0.07 -2.1,-0.07 z"
             id="path48" />
          <path
             class="cls-1"
             d="m 142.84,90.11 c 0,0 0.05,-0.02 0.08,-0.03 -0.03,0.01 -0.05,0.02 -0.08,0.03 z"
             id="path49" />
          <path
             class="cls-1"
             d="m 157.89,243.1 c 0,0 0,0 0,0 0,0 0,0.02 0,0.03 0,0 0,-0.02 0,-0.03 z"
             id="path50" />
          <path
             class="cls-1"
             d="m 153.97,284.73 c 0,0 0,0 0,0 0,-7.08 0,-14.16 0,-21.24 0,7.08 0,14.16 0,21.24 z"
             id="path51" />
          <path
             class="cls-1"
             d="m 155.65,286.33 c 0,0 -0.02,0 -0.03,0.01 0,0 0,0 0.01,0 0,0 0.01,0 0.02,0 z"
             id="path52" />
          <path
             class="cls-1"
             d="m 153.97,285.21 c 0,-0.05 0,-0.11 0,-0.16 0,0.05 0,0.11 0,0.16 z"
             id="path53" />
          <path
             class="cls-1"
             d="m 143.05,90.03 c 0,0 -0.06,0.03 -0.08,0.04 0.03,-0.01 0.06,-0.02 0.08,-0.04 z"
             id="path54" />
          <path
             class="cls-1"
             d="m 142.11,90.23 c 0,0 -0.08,0 -0.12,0 0.04,0 0.08,0 0.12,0 z"
             id="path55" />
          <path
             class="cls-1"
             d="m 114.98,245.97 c 0.05,-0.01 0.1,-0.02 0.16,-0.03 1.14,-0.23 2.27,-0.46 3.41,-0.69 -1.13,0.24 -2.27,0.47 -3.41,0.69 -0.05,0.01 -0.1,0.02 -0.16,0.03 z"
             id="path56" />
          <path
             class="cls-1"
             d="m 113.3,246.39 c 0,0 0,0 0.01,0 0,0 0,0 0,0 0,0 0,0 0,0 z"
             id="path57" />
          <path
             class="cls-1"
             d="m 145.35,224.48 c -0.07,0 -0.14,0 -0.21,0 0.07,0 0.14,0 0.21,0 0.75,0.01 1.3,0.33 1.67,0.88 -0.36,-0.55 -0.91,-0.87 -1.67,-0.88 z"
             id="path58" />
          <path
             class="cls-1"
             d="m 147.47,226.64 c -0.01,-0.06 -0.02,-0.12 -0.04,-0.19 0.01,0.06 0.02,0.12 0.04,0.19 z"
             id="path59" />
          <path
             class="cls-1"
             d="m 142.43,90.21 c 0,0 0.06,0 0.09,-0.01 -0.03,0 -0.06,0 -0.09,0.01 z"
             id="path60" />
          <path
             class="cls-1"
             d="m 142.68,217.52 v 0 c -0.08,0.64 -0.12,1.3 -0.12,1.97 0,0.66 -0.01,1.32 -0.02,1.98 0,-0.66 0.02,-1.32 0.02,-1.98 0,-0.67 0.04,-1.33 0.12,-1.97 z"
             id="path61" />
          <path
             class="cls-1"
             d="m 142.71,90.15 c 0,0 0.05,-0.01 0.08,-0.02 -0.03,0 -0.05,0.01 -0.08,0.02 z"
             id="path62" />
          <path
             class="cls-1"
             d="m 142.57,90.19 c 0,0 0.06,-0.01 0.09,-0.02 -0.03,0 -0.06,0.01 -0.09,0.02 z"
             id="path63" />
          <path
             class="cls-1"
             d="m 142.29,90.22 c 0,0 0.06,0 0.09,0 -0.03,0 -0.06,0 -0.09,0 z"
             id="path64" />
          <path
             class="cls-1"
             d="m 140.56,90.13 c 0.34,0.03 0.69,0.05 1.04,0.07 -0.35,-0.02 -0.69,-0.04 -1.04,-0.07 z"
             id="path65" />
          <path
             class="cls-1"
             d="m 142.15,90.23 c 0,0 0.06,0 0.09,0 -0.03,0 -0.06,0 -0.09,0 z"
             id="path66" />
          <path
             class="cls-1"
             d="m 147.5,226.82 c 0,0 0,-0.05 -0.01,-0.07 0,0.02 0,0.05 0.01,0.07 z"
             id="path67" />
          <path
             class="cls-9"
             d="m 52.85,222.98 c 0.03,-0.16 0.05,-0.32 0.08,-0.48 0.06,-0.35 0.13,-0.65 0.22,-0.91 -0.09,0.26 -0.16,0.56 -0.22,0.91 -0.03,0.16 -0.06,0.32 -0.08,0.48 z"
             id="path68" />
          <path
             class="cls-9"
             d="m 52.68,224.91 c 0.02,0.5 0.01,1 -0.01,1.5 0.03,-0.5 0.03,-0.99 0.01,-1.5 0,-0.17 0,-0.33 0,-0.5 0,0.17 0,0.33 0,0.5 z"
             id="path69" />
          <path
             class="cls-9"
             d="m 65.2,226.15 c 0,0 0.1,0.05 0.15,0.07 -0.05,-0.02 -0.1,-0.05 -0.15,-0.07 z"
             id="path70" />
          <path
             class="cls-9"
             d="m 63.2,225.25 c 0,0 0.05,0.02 0.07,0.03 -0.02,-0.01 -0.05,-0.02 -0.07,-0.03 z"
             id="path71" />
          <path
             class="cls-9"
             d="m 64.16,225.67 c 0.06,0.03 0.12,0.06 0.19,0.08 -0.06,-0.03 -0.12,-0.06 -0.19,-0.08 z"
             id="path72" />
          <path
             class="cls-9"
             d="m 141.92,211.66 c -0.67,1.09 -1.13,2.26 -1.45,3.49 0.32,-1.23 0.78,-2.4 1.45,-3.49 z"
             id="path73" />
          <path
             class="cls-9"
             d="m 155.48,104.12 c 0.16,2.51 0.04,4.98 -0.31,7.42 0.35,-2.44 0.47,-4.91 0.31,-7.42 -0.13,-2.05 -0.37,-4.08 -0.7,-6.1 v 0 c 0.33,2.01 0.57,4.05 0.7,6.1 z"
             id="path74" />
          <polygon
             class="cls-9"
             points="134.41,211.07 "
             id="polygon74" />
          <path
             class="cls-7"
             d="m 83.74,170.93 c -0.98,0.87 -0.78,1.76 -0.78,1.76 -0.06,0.68 -0.47,1.08 -0.47,1.08 -1.08,0.66 -1.36,0.56 -1.79,-0.54 -0.36,-0.93 -0.29,-1.9 -0.19,-2.83 0.16,-1.54 0.56,-3.02 1.49,-4.32 0.28,-0.39 0.57,-0.8 0.97,-1.05 1.08,-0.67 1.73,-1.7 2.38,-2.71 0.76,-1.18 1.63,-2.28 2.59,-3.28 0.96,-1 2.09,-1.86 3.18,-2.74 1.71,-1.37 2.79,-3.13 3.31,-5.21 0.55,-2.19 0.47,-4.36 -0.67,-6.41 -0.56,-1.01 -1.52,-1.45 -2.68,-1.25 -0.36,0.06 -0.73,0.07 -1.1,0.09 -1.99,0.07 -3.97,0.19 -5.94,0.6 -0.97,0.2 -1.98,0.21 -2.98,0.27 -0.99,0.06 -1.99,0.05 -2.99,0.17 -0.81,0.1 -1.69,-0.12 -2.51,-0.29 -1.95,-0.4 -3.85,-1.01 -5.84,-1.26 -1.21,-0.15 -2.4,-0.38 -3.63,-0.38 -0.63,0 -1.26,-0.1 -1.87,-0.13 -1.64,-0.07 -3.25,0.22 -4.65,1.16 -0.85,0.57 -1.18,2 -0.78,3.23 0.58,1.75 1.39,3.4 2.36,4.97 1.05,1.69 2.3,3.25 3.21,5.01 1.18,2.29 2.12,4.68 2.72,7.19 1.09,4.58 3.35,8.52 6.73,11.81 0.7,0.68 1.21,1.47 1.58,2.36 0.34,0.82 0.37,1.63 0.15,2.44 -0.06,0.21 -0.13,0.43 -0.23,0.64 -0.69,1.58 -1.36,3.17 -1.89,4.82 -0.69,2.15 -0.67,4.32 -0.39,6.53 0.16,1.23 0.19,2.48 0.5,3.69 0.41,1.63 0.96,3.18 1.68,4.64 1.08,2.19 2.53,4.17 4.47,5.86 1.3,1.13 2.71,2.15 4.03,3.27 0.78,0.67 1.58,1.31 2.29,2.06 v 0 c 0.92,0.48 1.82,0.98 2.75,1.43 2.35,1.12 4.75,1.9 7.21,2.3 0.15,0.03 0.31,0.05 0.46,0.07 1.08,0.16 2.17,0.24 3.28,0.25 1.26,0 2.54,-0.08 3.84,-0.28 0.84,-0.13 1.68,-0.23 2.53,-0.27 0.17,0 0.34,-0.01 0.51,-0.01 0.79,0 1.58,0.06 2.37,0.25 0.5,0.12 1,0.22 1.5,0.32 1.22,0.23 2.44,0.41 3.67,0.53 0.58,0.06 1.16,0.1 1.75,0.13 0.53,0.03 1.06,0.04 1.59,0.04 2.29,0 4.54,-0.29 6.75,-0.98 3.13,-0.99 5.99,-2.51 8.7,-4.3 0.41,-0.27 0.81,-0.54 1.21,-0.82 v 0 c 0,0 0,0 0,0 0.33,-0.24 0.62,-0.62 0.9,-0.45 0.64,0.45 0.75,1.01 0.48,1.73 -0.65,1.77 -1.58,3.33 -2.82,4.64 -0.65,0.69 -1.39,1.31 -2.22,1.86 -3.64,2.43 -7.62,4.02 -11.93,4.81 -1.78,0.33 -3.58,0.47 -5.37,0.7 -1.58,0.2 -3.19,-0.09 -4.74,0.39 -0.99,0.31 -1.95,0.61 -2.84,1.21 -1.54,1.03 -1.79,2.67 -1.37,4.39 0.29,1.16 1.06,1.9 2.16,2.33 2.52,0.99 5.14,1.55 7.84,1.8 1.28,0.12 2.56,0.32 3.85,0.39 2.19,0.11 4.33,-0.34 6.47,-0.75 0.25,-0.05 0.51,-0.1 0.76,-0.11 0.36,-0.02 0.7,0.06 0.76,0.47 0.05,0.4 -0.21,0.6 -0.59,0.65 -0.95,0.43 -1.95,0.66 -2.96,0.88 -3.66,0.78 -7.38,1.05 -11.09,1.34 -0.5,0.23 -1.02,0.4 -1.58,0.4 -1.58,0 -3.41,1.96 -2.9,3.98 0.66,2.57 1.19,5.18 1.81,7.76 0.09,0.39 0.02,0.92 0.6,1.06 0.01,-0.02 0.03,-0.04 0.04,-0.06 0.06,-0.09 0.11,-0.19 0.17,-0.28 0.06,-0.1 0.12,-0.2 0.17,-0.29 0.02,-0.04 0.05,-0.08 0.07,-0.12 0.04,-0.07 0.08,-0.14 0.12,-0.21 0.02,-0.04 0.05,-0.09 0.07,-0.13 0.05,-0.09 0.1,-0.18 0.15,-0.27 0.35,-0.69 0.83,-1.32 1.47,-1.76 0.52,-0.36 1.08,-0.61 1.67,-0.8 0,0 0,0 0,0 0,0 0,0 0,0 0.04,-0.01 0.09,-0.03 0.13,-0.04 0.03,0 0.06,-0.02 0.1,-0.03 0.04,-0.01 0.08,-0.02 0.13,-0.04 0.03,0 0.07,-0.02 0.1,-0.03 0.04,-0.01 0.09,-0.02 0.13,-0.03 0.03,0 0.07,-0.02 0.1,-0.03 0.04,-0.01 0.09,-0.02 0.13,-0.03 0.03,0 0.07,-0.02 0.1,-0.02 0.05,-0.01 0.09,-0.02 0.14,-0.03 0.03,0 0.06,-0.01 0.09,-0.02 0.05,-0.01 0.1,-0.02 0.15,-0.03 0.03,0 0.05,-0.01 0.08,-0.02 0.06,-0.01 0.11,-0.02 0.17,-0.04 0.02,0 0.04,0 0.06,-0.01 0.02,0 0.05,-0.01 0.07,-0.02 0.05,-0.01 0.1,-0.02 0.16,-0.03 1.14,-0.23 2.27,-0.46 3.41,-0.69 4.05,-0.84 8.07,-1.78 12.02,-3.06 2.48,-0.8 4.89,-1.77 7.21,-2.89 2.32,-1.13 4.56,-2.42 6.72,-3.87 0.33,-0.22 0.62,-0.46 0.84,-0.74 0.22,-0.28 0.36,-0.6 0.38,-1 0.06,-1.58 -0.03,-3.17 -0.47,-4.7 -0.22,-0.77 -0.68,-1.13 -1.38,-1.12 -0.16,0 -0.33,0.02 -0.52,0.06 0,0 -0.02,0 -0.02,0 -0.1,0.02 -0.2,0.04 -0.29,0.07 -0.04,0 -0.07,0.02 -0.11,0.03 -0.07,0.02 -0.14,0.03 -0.2,0.05 -0.04,0.01 -0.08,0.02 -0.13,0.04 -0.06,0.02 -0.12,0.03 -0.18,0.05 -0.04,0.01 -0.09,0.03 -0.13,0.04 -0.06,0.02 -0.12,0.03 -0.18,0.05 -0.05,0.01 -0.09,0.03 -0.14,0.04 -0.06,0.02 -0.11,0.04 -0.17,0.06 -0.05,0.02 -0.09,0.03 -0.14,0.05 -0.06,0.02 -0.11,0.04 -0.17,0.06 -0.05,0.02 -0.09,0.03 -0.14,0.05 -0.06,0.02 -0.11,0.04 -0.17,0.06 -0.05,0.02 -0.09,0.04 -0.14,0.05 -0.07,0.03 -0.13,0.05 -0.2,0.08 -0.82,0.33 -1.64,0.65 -2.47,0.94 -0.02,0 -0.05,0.02 -0.07,0.03 0,0 0,0 0,0 -0.02,0 -0.04,0.01 -0.05,0.02 0,0 0,0 -0.01,0 -0.02,0 -0.03,0 -0.05,0.01 0,0 -0.01,0 -0.02,0 -0.01,0 -0.03,0 -0.04,0 0,0 -0.01,0 -0.02,0 -0.01,0 -0.02,0 -0.04,0 0,0 -0.02,0 -0.02,0 -0.01,0 -0.02,0 -0.03,0 0,0 -0.01,0 -0.02,0 -0.01,0 -0.02,0 -0.04,0 0,0 -0.01,0 -0.02,0 -0.01,0 -0.03,0 -0.04,0 0,0 0,0 -0.01,0 -0.02,0 -0.04,0 -0.05,-0.01 0,0 0,0 -0.01,0 -0.01,0 -0.02,0 -0.04,-0.01 0,0 -0.01,0 -0.02,0 -0.01,0 -0.02,-0.01 -0.03,-0.02 0,0 -0.01,0 -0.02,-0.01 0,0 -0.02,-0.01 -0.03,-0.02 0,0 -0.01,-0.01 -0.02,-0.02 0,0 -0.02,-0.02 -0.03,-0.03 0,0 -0.01,-0.01 -0.02,-0.02 0,-0.01 -0.02,-0.02 -0.03,-0.04 0,0 0,-0.01 -0.01,-0.02 -0.01,-0.02 -0.02,-0.04 -0.04,-0.06 0,0 0,0 0,0 -0.06,-0.11 -0.08,-0.21 -0.07,-0.31 0,-0.12 0.06,-0.23 0.13,-0.33 0.06,-0.08 0.13,-0.16 0.21,-0.23 0.19,-0.17 0.42,-0.29 0.65,-0.42 0.32,-0.18 0.66,-0.35 0.99,-0.54 0.09,-0.05 0.19,-0.1 0.28,-0.16 0.17,-0.1 0.3,-0.18 0.41,-0.26 0.43,-0.31 0.43,-0.52 0.23,-1.25 -0.65,-2.32 -0.78,-4.65 -0.56,-6.99 0.08,-0.8 0.19,-1.6 0.34,-2.4 0.09,-0.48 0.2,-0.95 0.32,-1.42 0.32,-1.23 0.78,-2.4 1.45,-3.49 0.24,-0.38 0.5,-0.75 0.8,-1.11 0.89,-1.08 1.66,-2.25 2.49,-3.39 1.93,-2.65 3.62,-5.43 4.91,-8.43 0.3,-0.69 0.57,-1.39 0.83,-2.11 0.72,-2.03 1.34,-4.09 1.88,-6.17 0.53,-2.08 0.98,-4.18 1.34,-6.31 0.34,-2.03 0.6,-4.07 0.88,-6.11 0.09,-0.63 0.16,-1.59 0.4,-2.43 0,0 0.27,-1.74 0.57,-1.71 0.12,0.01 0.23,0.58 0.23,0.58 0,0 0.18,1.84 0.36,2.43 0,0 0.57,1.37 1.68,1.02 1.11,-0.34 2.31,-3.75 2.31,-3.75 2.02,-4.29 3.02,-5.87 4.03,-10.47 0,0 3.72,-17.55 3.84,-19.76 0.2,-3.6 -1.52,-2.82 -1.52,-2.82 -3.47,1.6 -4.21,11.99 -4.21,11.99 -0.04,1.32 0.54,2.99 0.54,2.99 0.38,1.12 0.31,2.26 -0.16,3.34 -0.88,2.03 -1.82,6.67 -2.37,8.82 0,0 0,0 0,0 -0.12,0.47 -0.38,0.88 -0.73,1.22 -0.03,0.03 -0.07,0.07 -0.1,0.1 -0.1,0.09 -0.22,0.16 -0.35,0.15 -0.04,0 -0.08,0 -0.13,-0.03 -0.06,-0.02 -0.11,-0.05 -0.16,-0.09 -0.12,-0.09 -0.18,-0.21 -0.2,-0.36 0,-0.05 -0.01,-0.11 0,-0.17 0,-0.07 0,-0.15 0.01,-0.22 0.02,-0.29 0.04,-0.59 0.1,-0.87 0.06,-0.32 0.13,-0.63 0.21,-0.94 0.04,-0.19 0.09,-0.38 0.13,-0.56 0.02,-0.08 0.03,-0.16 0.03,-0.24 0,-0.17 -0.05,-0.33 -0.24,-0.44 -0.08,-0.05 -0.16,-0.07 -0.24,-0.07 -0.09,0 -0.18,0.03 -0.26,0.07 -0.07,0.04 -0.14,0.09 -0.2,0.14 -0.06,0.05 -0.12,0.11 -0.18,0.16 -0.02,0.02 -0.03,0.03 -0.05,0.05 -0.04,0.04 -0.08,0.08 -0.12,0.13 -0.02,0.02 -0.03,0.03 -0.05,0.05 -0.05,0.06 -0.1,0.12 -0.15,0.18 0,0 0,0 0,0 -0.05,0.06 -0.09,0.12 -0.14,0.19 -0.01,0.02 -0.03,0.04 -0.04,0.06 -0.03,0.05 -0.06,0.1 -0.09,0.15 -0.01,0.02 -0.02,0.04 -0.04,0.06 -0.04,0.07 -0.07,0.13 -0.11,0.2 0,0 0,0 0,0 -0.04,0.07 -0.07,0.14 -0.1,0.22 0,0.02 -0.02,0.04 -0.03,0.06 -0.02,0.06 -0.04,0.11 -0.06,0.17 -0.13,0.35 -0.22,0.73 -0.27,1.14 -0.1,0.77 -0.46,1.46 -0.9,2.11 -0.04,0.07 -0.08,0.14 -0.11,0.23 0,0 0,0.02 0,0.03 0,0 0,0 0,0 -0.01,0.03 -0.02,0.07 -0.04,0.1 0,0 0,0 0,0.01 0,0.02 -0.01,0.03 -0.02,0.05 0,0 0,0.01 0,0.02 0,0.02 -0.01,0.03 -0.02,0.04 0,0 0,0 0,0.01 0,0.02 -0.02,0.04 -0.03,0.05 0,0 0,0 0,0 0,0.01 -0.02,0.03 -0.03,0.04 0,0 0,0 -0.01,0.01 0,0.01 -0.02,0.02 -0.03,0.03 0,0 0,0 -0.01,0.01 -0.01,0.01 -0.02,0.02 -0.04,0.03 0,0 0,0 0,0 -0.02,0.01 -0.03,0.02 -0.05,0.03 0,0 -0.01,0 -0.02,0 -0.01,0 -0.03,0.01 -0.05,0.02 0,0 -0.01,0 -0.02,0 -0.02,0 -0.03,0 -0.05,0 0,0 -0.01,0 -0.02,0 -0.03,0 -0.05,0 -0.08,0 v 0 c -0.12,-0.26 -0.04,-0.5 0,-0.76 0.15,-0.88 0.35,-1.76 0.46,-2.65 0.03,-0.2 0.05,-0.41 0.07,-0.61 0.07,-0.87 0.14,-1.74 0.2,-2.61 0.18,-2.39 0.35,-4.79 0.51,-7.18 0.06,-0.91 0.13,-1.83 0.19,-2.74 0.15,-2.17 0.29,-4.34 0.43,-6.5 0.04,-0.62 0.08,-1.24 0.12,-1.86 0.07,-1.12 0.15,-2.24 0.2,-3.35 0,-0.03 0,-0.06 0,-0.09 0,-0.19 0.02,-0.39 0.03,-0.58 0,-0.05 0,-0.11 0,-0.16 0,-0.17 0.01,-0.34 0.02,-0.51 0,-0.06 0,-0.13 0,-0.19 0,-0.16 0.01,-0.32 0.02,-0.48 0,-0.07 0,-0.15 0,-0.22 0,-0.15 0,-0.3 0.01,-0.45 0,-0.08 0,-0.16 0,-0.25 0,-0.14 0,-0.28 0,-0.42 0,-0.09 0,-0.17 0,-0.26 0,-0.14 0,-0.28 0,-0.41 0,-0.09 0,-0.18 0,-0.27 0,-0.13 0,-0.27 0,-0.4 0,-0.09 0,-0.18 0,-0.27 0,-0.13 0,-0.26 0,-0.4 0,-0.09 0,-0.19 0,-0.28 0,-0.13 0,-0.26 -0.01,-0.39 0,-0.1 0,-0.19 -0.01,-0.29 0,-0.13 -0.01,-0.26 -0.02,-0.39 0,-0.1 -0.01,-0.19 -0.02,-0.29 0,-0.12 -0.02,-0.25 -0.02,-0.37 0,-0.11 -0.02,-0.22 -0.03,-0.32 0,-0.01 0,-0.02 0,-0.03 -0.01,-0.1 -0.02,-0.19 -0.04,-0.28 0,-0.03 0,-0.07 -0.01,-0.1 0,-0.04 -0.01,-0.08 -0.02,-0.12 -0.26,-1.64 -0.95,-3.19 -2.01,-4.49 -0.08,-0.1 -0.16,-0.2 -0.23,-0.29 -0.09,-0.11 -0.17,-0.22 -0.26,-0.32 -0.08,-0.1 -0.16,-0.2 -0.23,-0.31 -0.08,-0.11 -0.17,-0.22 -0.25,-0.33 -0.09,-0.12 -0.18,-0.24 -0.26,-0.36 -0.07,-0.1 -0.14,-0.19 -0.21,-0.28 -0.16,-0.22 -0.31,-0.43 -0.47,-0.65 -0.78,-1.11 -1.22,-2.32 -1.36,-3.64 -0.03,-0.3 -0.05,-0.61 -0.05,-0.92 0,-0.42 0.03,-0.84 0.1,-1.24 0.02,-0.16 0.05,-0.32 0.09,-0.49 0.05,-0.24 0.11,-0.48 0.17,-0.72 0.13,-0.48 0.28,-0.95 0.44,-1.42 0.87,-2.53 1.53,-5.09 1.94,-7.69 0.03,-0.16 0.05,-0.32 0.07,-0.49 0.35,-2.44 0.47,-4.91 0.31,-7.42 -0.13,-2.05 -0.37,-4.08 -0.7,-6.1 -0.6,-3.63 -1.52,-7.2 -2.68,-10.71 -0.08,-0.24 -0.16,-0.47 -0.26,-0.7 -0.4,-1 -0.95,-1.93 -1.61,-2.79 -0.01,-0.02 -0.03,-0.03 -0.04,-0.05 -0.04,-0.05 -0.08,-0.1 -0.12,-0.15 -0.02,-0.03 -0.05,-0.05 -0.07,-0.08 -0.03,-0.04 -0.07,-0.08 -0.1,-0.12 -0.03,-0.03 -0.05,-0.05 -0.08,-0.08 -0.03,-0.03 -0.07,-0.07 -0.1,-0.1 -0.03,-0.03 -0.05,-0.05 -0.08,-0.08 -0.03,-0.03 -0.07,-0.07 -0.1,-0.1 -0.03,-0.03 -0.06,-0.05 -0.09,-0.08 -0.03,-0.03 -0.07,-0.06 -0.1,-0.09 -0.03,-0.03 -0.06,-0.05 -0.09,-0.07 -0.03,-0.03 -0.07,-0.06 -0.1,-0.08 -0.03,-0.02 -0.06,-0.05 -0.09,-0.07 -0.04,-0.03 -0.07,-0.05 -0.11,-0.08 -0.03,-0.02 -0.06,-0.04 -0.1,-0.07 -0.04,-0.02 -0.07,-0.05 -0.11,-0.07 -0.03,-0.02 -0.07,-0.04 -0.1,-0.06 -0.04,-0.02 -0.07,-0.05 -0.11,-0.07 -0.03,-0.02 -0.07,-0.04 -0.1,-0.06 -0.04,-0.02 -0.08,-0.04 -0.11,-0.06 -0.03,-0.02 -0.07,-0.04 -0.11,-0.05 -0.04,-0.02 -0.08,-0.04 -0.12,-0.06 -0.04,-0.02 -0.07,-0.03 -0.11,-0.05 -0.04,-0.02 -0.08,-0.04 -0.12,-0.05 -0.04,-0.02 -0.07,-0.03 -0.11,-0.05 -0.04,-0.02 -0.08,-0.03 -0.12,-0.05 -0.04,-0.01 -0.08,-0.03 -0.12,-0.04 -0.04,-0.01 -0.08,-0.03 -0.13,-0.04 -0.04,-0.01 -0.08,-0.03 -0.12,-0.04 -0.04,-0.01 -0.08,-0.03 -0.13,-0.04 -0.04,-0.01 -0.08,-0.02 -0.12,-0.03 -0.04,-0.01 -0.08,-0.02 -0.12,-0.03 -0.05,-0.01 -0.11,-0.03 -0.16,-0.04 -0.02,0 -0.04,0 -0.06,-0.01 -1.2,-0.23 -2.45,0 -3.45,0.73 -0.08,0.06 -0.15,0.11 -0.22,0.17 0,0 0,0 0,0 -0.05,0.04 -0.09,0.08 -0.14,0.12 -0.03,0.03 -0.06,0.06 -0.1,0.09 -0.04,0.04 -0.08,0.07 -0.12,0.11 -0.02,0.02 -0.04,0.04 -0.06,0.06 -0.05,0.05 -0.1,0.11 -0.15,0.16 0,0 -0.01,0.01 -0.02,0.02 -0.05,0.06 -0.1,0.12 -0.15,0.19 -0.02,0.02 -0.03,0.04 -0.05,0.06 -0.03,0.04 -0.07,0.09 -0.1,0.13 -0.02,0.03 -0.03,0.05 -0.05,0.08 -0.03,0.04 -0.06,0.08 -0.08,0.13 -0.02,0.03 -0.03,0.05 -0.05,0.08 -0.03,0.04 -0.05,0.09 -0.07,0.13 -0.01,0.03 -0.03,0.05 -0.04,0.08 -0.03,0.05 -0.05,0.09 -0.07,0.14 -0.01,0.02 -0.02,0.05 -0.03,0.07 -0.03,0.07 -0.06,0.14 -0.09,0.21 0,0 0,0 0,0.01 -0.03,0.07 -0.06,0.15 -0.09,0.22 0,0.02 -0.02,0.05 -0.03,0.07 -0.02,0.05 -0.04,0.1 -0.06,0.16 0,0.03 -0.02,0.06 -0.03,0.08 -0.02,0.05 -0.03,0.1 -0.05,0.15 0,0.03 -0.02,0.06 -0.03,0.09 -0.01,0.05 -0.03,0.1 -0.04,0.15 0,0.03 -0.01,0.06 -0.02,0.09 -0.01,0.06 -0.03,0.11 -0.04,0.17 0,0.02 -0.01,0.05 -0.02,0.07 -0.02,0.08 -0.03,0.16 -0.05,0.24 -0.08,0.44 -0.11,0.79 -0.05,1.09 0.03,0.17 0.09,0.33 0.18,0.47 0.04,0.06 0.08,0.12 0.13,0.18 0.02,0.02 0.03,0.04 0.05,0.06 0.16,0.17 0.38,0.34 0.66,0.51 0.04,0.03 0.09,0.05 0.13,0.08 0.02,0 0.03,0.02 0.05,0.03 0.03,0.02 0.06,0.03 0.08,0.05 0.04,0.02 0.09,0.05 0.13,0.07 0.01,0 0.03,0.02 0.04,0.02 0.03,0.02 0.06,0.03 0.09,0.05 0.02,0.01 0.03,0.02 0.05,0.03 0.03,0.02 0.05,0.03 0.08,0.05 0.02,0.01 0.04,0.02 0.06,0.04 0.02,0.02 0.05,0.03 0.07,0.05 0.02,0.01 0.04,0.03 0.06,0.04 0.02,0.02 0.04,0.03 0.07,0.05 0.02,0.01 0.04,0.03 0.06,0.04 0.02,0.01 0.04,0.03 0.05,0.04 0,0 0,0 0,0 0,0 0,0 0.01,0 0.02,0.02 0.04,0.03 0.05,0.05 0,0 0.02,0.01 0.03,0.02 0.01,0.01 0.03,0.03 0.04,0.04 0.38,0.4 0.28,0.85 -0.27,1.11 0,0 0,0 0,0 0,0 0,0 0,0 -0.03,0.01 -0.06,0.02 -0.08,0.04 -0.01,0 -0.03,0.01 -0.04,0.02 -0.03,0.01 -0.05,0.02 -0.08,0.03 -0.02,0 -0.03,0.01 -0.05,0.02 -0.03,0 -0.05,0.01 -0.08,0.02 -0.02,0 -0.03,0.01 -0.05,0.01 -0.03,0 -0.06,0.01 -0.09,0.02 -0.02,0 -0.03,0 -0.05,0 -0.03,0 -0.06,0 -0.09,0.01 -0.02,0 -0.03,0 -0.05,0 -0.03,0 -0.06,0 -0.09,0 -0.02,0 -0.03,0 -0.05,0 -0.03,0 -0.06,0 -0.09,0 -0.02,0 -0.03,0 -0.05,0 -0.04,0 -0.08,0 -0.12,0 0,0 -0.02,0 -0.02,0 -0.12,0 -0.25,-0.01 -0.37,-0.02 -0.35,-0.02 -0.69,-0.04 -1.04,-0.07 -0.12,-0.01 -0.25,-0.02 -0.37,-0.04 -2.27,-0.28 -4.3,-1.08 -5.92,-2.74 -0.32,-0.33 -0.65,-0.66 -0.97,-0.99 -0.32,-0.33 -0.64,-0.67 -0.94,-1.02 -0.21,-0.24 -0.42,-0.46 -0.64,-0.66 -0.8,-0.74 -1.72,-1.3 -2.75,-1.76 -2.88,-1.28 -5.78,-2.46 -8.91,-3.04 -1.86,-0.35 -3.64,-1.01 -5.37,-1.75 -1.34,-0.57 -2.55,-1.33 -3.65,-2.29 -0.34,-0.29 -0.65,-0.61 -0.94,-0.93 -0.75,-0.84 -1.34,-1.77 -1.84,-2.77 -0.19,-0.39 -0.38,-0.79 -0.54,-1.19 -0.13,-0.32 -0.25,-0.71 -0.58,-0.85 -0.08,-0.03 -0.17,-0.05 -0.27,-0.05 v 0 c 0,0 -0.05,0 -0.08,0 0,0 -0.02,0 -0.02,0 -0.02,0 -0.03,0 -0.05,0 0,0 -0.02,0 -0.02,0 -0.02,0 -0.03,0 -0.05,0.01 0,0 -0.01,0 -0.02,0 -0.02,0 -0.04,0.02 -0.06,0.03 0,0 0,0 0,0 -0.02,0 -0.03,0.02 -0.05,0.03 0,0 -0.01,0 -0.02,0.01 -0.01,0 -0.03,0.02 -0.04,0.03 0,0 -0.01,0 -0.02,0.01 -0.01,0.01 -0.02,0.02 -0.04,0.03 0,0 0,0 -0.01,0.01 -0.02,0.02 -0.03,0.03 -0.05,0.05 0,0 0,0 0,0.01 -0.01,0.01 -0.02,0.03 -0.04,0.04 0,0 0,0.01 -0.01,0.02 0,0.01 -0.02,0.03 -0.03,0.04 0,0 0,0.01 -0.01,0.02 -0.01,0.02 -0.02,0.03 -0.03,0.05 0,0 0,0 0,0 -0.01,0.02 -0.03,0.04 -0.04,0.06 0,0 0,0 0,0 -0.01,0.02 -0.03,0.04 -0.04,0.06 -0.2,0.32 -0.39,0.64 -0.57,0.98 -0.09,0.17 -0.18,0.34 -0.26,0.51 -0.04,0.08 -0.08,0.16 -0.12,0.24 -0.1,0.19 -0.19,0.37 -0.29,0.56 -0.07,0.14 -0.14,0.28 -0.21,0.42 -0.05,0.09 -0.09,0.18 -0.14,0.27 -0.11,0.21 -0.22,0.43 -0.34,0.64 -0.41,0.76 -0.87,1.47 -1.39,2.12 -0.1,0.13 -0.21,0.26 -0.32,0.38 -0.22,0.25 -0.44,0.49 -0.68,0.73 -0.35,0.35 -0.73,0.68 -1.12,0.99 -0.66,0.51 -1.37,0.97 -2.15,1.37 -0.15,0.08 -0.29,0.15 -0.44,0.23 -0.6,0.32 -1.21,0.65 -1.81,0.97 -0.38,0.7 -0.97,1.19 -1.68,1.55 -2.09,1.05 -4.28,1.94 -6.6,2.16 -2.17,0.21 -4.29,0.72 -6.48,0.78 -1.13,0.03 -2.27,0.27 -3.39,0.5 -0.72,0.15 -1.46,0.15 -2.18,0.34 -1.48,0.4 -2.59,1.19 -3.32,2.54 -1.26,2.34 -1.93,4.81 -1.96,7.47 -0.03,2.68 0.33,5.34 0.26,8.03 -0.1,3.56 -0.87,6.89 -2.91,9.87 -0.43,0.62 -0.61,1.34 -0.82,2.03 -0.21,0.7 0.14,1.2 0.87,1.4 0.62,0.17 1.27,0.12 1.86,-0.03 1.76,-0.43 3.59,-0.39 5.35,-0.8 0.69,-0.16 1.39,0.14 2.07,0.3 3.24,0.79 6.38,1.87 9.45,3.15 2.32,0.97 4.68,1.81 7.18,2.18 1.2,0.18 2.41,0.37 3.64,0.3 2,-0.11 3.89,0.36 5.71,1.12 0.65,0.27 1.24,0.65 1.62,1.27 v 0 c 0,0 0,0 0,0 1.22,1.37 1.02,2.58 0.15,3.8 -0.84,1.18 -1.12,2.45 -0.66,3.86 0.21,0.66 0.13,1.32 -0.22,1.92 -0.69,1.19 -0.89,2.48 -0.77,3.83 0.05,0.63 -0.02,1.24 -0.18,1.85 -0.19,0.71 -0.32,1.43 -0.34,2.17 -0.09,3.61 -0.71,7.16 -1.42,10.69 -0.56,2.8 -0.61,5.63 0.1,8.42 0.53,2.1 1.66,3.83 3.38,5.18 2.85,2.26 6.49,2.42 9.5,0.37 0.67,-0.46 1.28,-1 1.95,-1.46 1.33,-0.91 3.02,-0.86 4.25,0.11 0.17,0.13 0.35,0.28 0.46,0.46 0.22,0.34 0.04,0.76 -0.35,0.71 -1.63,-0.22 -2.51,0.86 -3.44,1.86 -0.88,0.95 -1.79,1.88 -2.85,2.62 -0.99,0.68 -1.56,1.53 -1.65,2.72 -0.02,0.33 -0.1,0.65 -0.15,0.98 0.09,0.65 -0.13,1.25 -0.44,1.79 -0.54,0.93 -0.75,1.89 -0.66,2.95 0.03,0.4 0.19,1.05 -0.38,1.12 -0.63,0.08 -0.63,-0.58 -0.72,-1.03 -0.25,-1.33 -1.89,-2.66 -3.19,-2.58 -0.38,0.02 -0.72,0.21 -1.02,0.42 -2.6,1.82 -5.2,1.39 -7.72,-0.09 -1.66,-0.97 -3.17,-2.15 -4.34,-3.72 -0.5,-0.67 -1.13,-1.25 -1.69,-1.89 -0.85,-0.98 -1.27,-2.09 -1.2,-3.33 0.13,-2.05 -0.82,-2.7 -2.97,-2.01 -1.41,0.44 -2.34,1.52 -3.23,2.59 0,0 -0.78,0.99 -1.46,1.42 m 36.63,-14.18 c -0.12,-1.6 -0.49,-3.11 -1.41,-4.45 -0.31,-0.46 -0.54,-0.96 -0.69,-1.49 -0.07,-0.23 -0.1,-0.43 0.1,-0.6 0.19,-0.16 0.42,-0.15 0.62,-0.04 0.55,0.3 1.1,0.61 1.64,0.92 1.95,1.08 3.42,2.52 3.83,4.83 0.15,0.88 0.67,1.63 1.49,2.1 0.71,0.4 1.06,1.13 1.55,1.7 1.72,2.01 3.54,3.94 4.82,6.29 0.72,1.33 0.82,2.8 1.18,4.21 0.3,1.16 0.22,2.33 0.22,3.5 0,0.35 -0.05,0.68 -0.45,0.79 -0.41,0.12 -0.73,0 -0.88,-0.43 v 0 c -0.19,-0.31 -0.4,-0.61 -0.56,-0.94 -1.55,-3.14 -3.62,-5.94 -5.88,-8.62 -0.69,-0.82 -1.43,-1.37 -2.58,-0.84 -0.52,0.23 -0.72,-0.14 -0.81,-0.59 -0.2,-1.01 -0.4,-2.01 -0.87,-2.94 -0.07,-0.13 -0.15,-0.25 -0.23,-0.38 -0.83,-0.85 -1.02,-1.93 -1.1,-3.03 z m 12.44,30.17 c 0,0 -0.07,-0.04 -0.09,-0.06 -1.12,-1.29 -2.41,-1.09 -3.84,-0.54 -2.26,0.87 -4.65,0.88 -7.02,0.71 -3.24,-0.23 -6.44,-0.2 -9.59,0.74 -0.78,0.23 -1.6,0.3 -2.42,0.32 -1.12,0.02 -2.23,-0.05 -3.29,-0.39 -0.98,-0.32 -1.94,-0.35 -2.95,-0.13 -2.18,0.49 -4.4,0.58 -6.63,0.5 -0.89,-0.03 -1.75,0.06 -2.79,0.33 0.98,0.79 1.99,1.03 3.03,1.16 0.51,0.06 1.03,0.02 1.55,-0.1 1.07,-0.24 2.12,-0.2 3.18,0.11 3.99,1.16 8.03,1.27 12.1,0.5 0.58,-0.11 1.17,-0.18 1.76,-0.25 0.29,-0.03 0.59,-0.03 0.86,0.14 0.41,0.27 0.45,0.7 0.05,0.99 -0.24,0.17 -0.52,0.28 -0.79,0.4 -2.19,1.04 -4.53,1.6 -6.91,1.99 v 0 c -0.45,0.29 -0.97,0.32 -1.47,0.41 -1.22,0.24 -1.59,1.26 -0.76,2.19 0.53,0.59 1.21,0.96 1.99,1.13 1.4,0.3 2.81,0.6 4.22,0.87 0.49,0.1 0.91,0.31 1.25,0.67 0.18,0.19 0.39,0.37 0.25,0.67 -0.11,0.25 -0.37,0.2 -0.58,0.22 -0.75,0.07 -1.46,-0.21 -2.18,-0.32 -2.9,-0.44 -5.82,-0.59 -8.71,-0.06 -1.55,0.28 -3.01,0.99 -4.57,1.31 -0.79,0.16 -1.6,0.36 -2.4,0.36 -1.11,0 -2.12,0.29 -3.11,0.72 -0.58,0.25 -1.2,0.37 -1.8,0.55 -0.57,0.17 -1.07,0.03 -1.38,-0.43 -0.33,-0.47 0,-0.92 0.28,-1.31 0.33,-0.44 0.73,-0.84 1.03,-1.3 1.15,-1.76 0.55,-4.01 -1.42,-4.78 -1.92,-0.76 -3.44,-1.96 -4.85,-3.4 -0.87,-0.89 -1.24,-0.88 -2.12,-0.02 -0.35,0.33 -0.66,0.7 -1.04,1 -0.65,0.52 -0.94,0.5 -1.52,-0.1 -0.91,-0.95 -1.51,-2.09 -1.82,-3.35 -0.68,-2.73 0.07,-5.06 2.11,-7 0.51,-0.48 0.97,-1.02 1.5,-1.47 1.04,-0.88 1.96,-0.58 2.29,0.72 0.03,0.11 0.07,0.22 0.06,0.32 -0.03,1.35 0.51,2.49 1.35,3.51 0.48,0.21 0.98,0.28 1.51,0.27 3.98,-0.06 7.91,-0.42 11.74,-1.59 2.53,-0.77 5.05,-0.59 7.52,0.34 0.83,0.31 1.66,0.63 2.52,0.87 1.01,0.28 1.98,0.25 2.9,-0.29 1.48,-0.87 3.04,-1.04 4.71,-0.66 2.9,0.66 5.86,0.85 8.83,0.89 1.19,0.02 2.37,-0.14 3.54,-0.3 0.93,-0.13 1.62,-0.5 1.73,-1.55 0.04,-0.35 0.22,-0.64 0.6,-0.7 0.34,-0.05 0.53,0.21 0.71,0.45 0.74,1.01 1.53,1.99 1.84,3.24 0.07,0.28 0.16,0.57 0.16,0.86 0,0.71 -0.52,0.98 -1.13,0.61 z m 17.35,-48.1 c 0,0.48 -0.34,0.51 -0.7,0.38 -0.32,-0.12 -0.55,-0.37 -0.76,-0.63 -1.31,-1.61 -2.87,-2.97 -4.37,-4.39 -0.9,-0.85 -1.97,-1.43 -3.15,-1.81 -1.53,-0.49 -3.07,-0.9 -4.64,-1.19 -1.16,-0.21 -2.32,-0.37 -3.51,-0.44 -2.07,-0.14 -4.08,0.33 -6.24,0.63 0.45,0.52 0.93,0.56 1.4,0.56 2.08,-0.02 4.15,0.17 6.22,0.23 0.73,0.02 1.42,0.18 2.06,0.47 0.23,0.1 0.45,0.23 0.67,0.37 1.06,0.69 2.18,1.25 3.36,1.7 1.15,0.43 2.04,1.17 2.65,2.24 0.77,1.38 1.77,2.54 3.26,3.2 0.1,0.04 0.2,0.1 0.28,0.17 0.17,0.14 0.37,0.28 0.27,0.54 -0.08,0.21 -0.29,0.22 -0.47,0.21 -0.29,-0.02 -0.59,-0.04 -0.88,-0.11 -0.94,-0.23 -1.84,-0.57 -2.66,-1.09 -1.11,-0.71 -2.3,-0.96 -3.61,-0.62 -0.79,0.2 -1.59,0.34 -2.39,0.5 -0.19,0.04 -0.4,0.03 -0.51,-0.13 -0.14,-0.2 -0.06,-0.42 0.1,-0.6 0.25,-0.27 0.5,-0.54 0.74,-0.82 0.17,-0.2 0.31,-0.44 0.07,-0.68 -0.28,-0.29 -0.46,-0.02 -0.64,0.15 -0.16,0.15 -0.3,0.32 -0.44,0.5 -0.02,0.03 -0.04,0.05 -0.06,0.08 -1.03,1.33 -2.43,1.68 -4.06,1.56 -1.35,-0.1 -2.63,-0.39 -3.84,-1 -0.43,-0.22 -0.9,-0.36 -1.38,-0.39 -0.61,-0.04 -0.8,0.14 -0.83,0.76 -0.01,0.37 0.04,0.73 0.2,1.07 0.22,0.48 0.52,0.88 0.89,1.25 0.26,0.26 0.83,0.48 0.54,0.94 -0.24,0.37 -0.76,0.17 -1.15,0.1 -1.31,-0.24 -2.42,-0.88 -3.38,-1.79 -0.59,-0.56 -1.15,-1.15 -1.88,-1.54 -0.78,-0.42 -1.53,-0.52 -2.29,0.04 -0.18,0.13 -0.38,0.23 -0.59,0.31 -0.96,0.39 -1.81,0 -2.07,-0.99 -0.1,-0.38 -0.09,-0.8 -0.09,-1.2 0,-1.4 0,-2.79 0.04,-4.19 0.03,-1.09 -0.22,-2.11 -0.72,-3.08 -0.24,-0.46 -0.47,-0.92 -0.67,-1.39 -0.34,-0.78 -0.31,-1.58 -0.04,-2.37 0.32,-0.91 0.89,-1.5 1.95,-1.51 0.44,0 0.89,-0.03 1.33,0 3.93,0.2 7.86,0.04 11.78,-0.24 2.29,-0.16 4.57,-0.44 6.87,-0.33 0.08,0 0.15,0 0.23,0.01 1.98,0.12 3.88,0.55 5.68,1.38 1.2,0.55 2.21,1.34 3.02,2.37 1.9,2.4 3.12,5.16 4.21,7.97 0.36,0.91 0.17,1.89 0.16,2.84 z"
             id="path75" />
          <path
             class="cls-6"
             d="m 103.34,123.91 c -1.82,-0.75 -3.72,-1.23 -5.71,-1.12 -1.23,0.07 -2.44,-0.13 -3.64,-0.3 -2.5,-0.37 -4.86,-1.21 -7.18,-2.18 -3.07,-1.28 -6.21,-2.36 -9.45,-3.15 -0.68,-0.16 -1.38,-0.46 -2.07,-0.3 -1.76,0.42 -3.59,0.37 -5.35,0.8 -0.6,0.14 -1.24,0.2 -1.86,0.03 -0.73,-0.2 -1.08,-0.7 -0.87,-1.4 0.21,-0.7 0.39,-1.41 0.82,-2.03 2.04,-2.98 2.81,-6.31 2.91,-9.87 0.08,-2.68 -0.28,-5.35 -0.26,-8.03 0.03,-2.66 0.7,-5.13 1.96,-7.47 0.73,-1.35 1.84,-2.14 3.32,-2.54 0.72,-0.19 1.46,-0.19 2.18,-0.34 1.12,-0.23 2.25,-0.47 3.39,-0.5 2.19,-0.06 4.31,-0.57 6.48,-0.78 2.32,-0.22 4.51,-1.11 6.6,-2.16 0.71,-0.36 1.29,-0.84 1.68,-1.55 v 0 c -0.06,0 -0.12,0 -0.18,-0.01 -0.42,0 -0.83,0.08 -1.23,0.21 -1.12,0.35 -2.24,0.67 -3.39,0.92 -0.52,0.11 -1.04,0.21 -1.57,0.29 -1.76,0.26 -3.54,0.39 -5.28,0.71 -2.34,0.42 -4.7,0.58 -7.07,0.59 -0.34,0 -0.68,0 -1.02,0 -0.61,0 -1.17,-0.15 -1.72,-0.39 -0.49,-0.21 -0.95,-0.45 -1,-1.06 -0.05,-0.61 0.37,-0.94 0.8,-1.23 0.52,-0.34 1.08,-0.65 1.61,-0.98 0.04,-0.02 0.08,-0.05 0.12,-0.08 0,0 0,0 0,0 0.04,-0.02 0.07,-0.05 0.1,-0.08 0,0 0.02,-0.01 0.02,-0.02 0.03,-0.02 0.05,-0.04 0.08,-0.07 0.01,0 0.02,-0.02 0.03,-0.03 0.02,-0.02 0.04,-0.04 0.07,-0.06 0.01,-0.01 0.02,-0.02 0.03,-0.03 0.02,-0.02 0.04,-0.04 0.06,-0.06 0.01,-0.01 0.02,-0.02 0.03,-0.04 0.02,-0.02 0.04,-0.04 0.05,-0.06 0.01,-0.01 0.02,-0.03 0.03,-0.04 0.02,-0.02 0.03,-0.04 0.05,-0.06 0,-0.01 0.02,-0.03 0.03,-0.04 0.01,-0.02 0.03,-0.04 0.04,-0.06 0,-0.01 0.02,-0.03 0.03,-0.05 0.01,-0.02 0.03,-0.04 0.04,-0.06 0,-0.02 0.02,-0.03 0.02,-0.05 0.01,-0.02 0.02,-0.04 0.03,-0.07 0,-0.02 0.02,-0.03 0.02,-0.05 0,-0.02 0.02,-0.04 0.03,-0.07 0,-0.02 0.01,-0.04 0.02,-0.05 0,-0.02 0.02,-0.04 0.03,-0.07 0,-0.02 0.01,-0.04 0.02,-0.06 0,-0.02 0.02,-0.05 0.02,-0.07 0,-0.02 0.01,-0.04 0.02,-0.06 0,-0.02 0.01,-0.05 0.02,-0.07 0,-0.02 0,-0.04 0.01,-0.06 0,-0.02 0.01,-0.05 0.01,-0.07 0,-0.02 0,-0.04 0.01,-0.07 0,-0.02 0,-0.05 0.01,-0.07 0,0 0,-0.02 0,-0.03 0.09,-0.7 -0.39,-1.05 -1.04,-0.78 -0.65,0.28 -1.29,0.58 -1.93,0.88 -0.06,0.03 -0.11,0.05 -0.17,0.08 -0.16,0.07 -0.33,0.15 -0.49,0.22 -0.22,0.1 -0.43,0.19 -0.65,0.28 -0.11,0.04 -0.21,0.09 -0.32,0.13 -0.03,0.01 -0.06,0.02 -0.08,0.04 -0.08,0.03 -0.15,0.07 -0.23,0.1 -0.04,0.02 -0.07,0.03 -0.11,0.05 -0.07,0.03 -0.13,0.06 -0.2,0.09 -0.04,0.02 -0.08,0.04 -0.12,0.06 -0.06,0.03 -0.12,0.06 -0.18,0.09 -0.04,0.02 -0.08,0.04 -0.12,0.06 -0.06,0.03 -0.11,0.06 -0.17,0.09 -0.04,0.02 -0.08,0.05 -0.13,0.07 -0.06,0.03 -0.11,0.06 -0.17,0.09 -0.04,0.02 -0.08,0.05 -0.13,0.07 -0.05,0.03 -0.11,0.06 -0.16,0.09 -0.04,0.02 -0.08,0.05 -0.13,0.08 -0.05,0.03 -0.1,0.06 -0.16,0.09 -0.04,0.03 -0.08,0.05 -0.12,0.08 -0.05,0.03 -0.1,0.06 -0.15,0.1 -0.04,0.03 -0.08,0.05 -0.12,0.08 -0.05,0.03 -0.1,0.06 -0.15,0.1 -0.04,0.03 -0.08,0.06 -0.12,0.08 -0.05,0.03 -0.1,0.07 -0.14,0.1 -0.04,0.03 -0.08,0.06 -0.12,0.09 -0.05,0.03 -0.09,0.07 -0.14,0.1 -0.04,0.03 -0.08,0.06 -0.12,0.09 -0.05,0.03 -0.09,0.07 -0.14,0.11 -0.04,0.03 -0.08,0.06 -0.12,0.09 -0.05,0.04 -0.09,0.07 -0.14,0.11 -0.04,0.03 -0.08,0.06 -0.12,0.09 -0.04,0.04 -0.09,0.07 -0.13,0.11 -0.04,0.03 -0.08,0.07 -0.11,0.1 -0.04,0.04 -0.09,0.07 -0.13,0.11 -0.04,0.03 -0.08,0.07 -0.11,0.1 -0.04,0.04 -0.08,0.08 -0.13,0.11 -0.04,0.03 -0.07,0.07 -0.11,0.1 -0.04,0.04 -0.08,0.08 -0.12,0.12 -0.04,0.04 -0.07,0.07 -0.11,0.11 -0.04,0.04 -0.08,0.08 -0.12,0.12 -0.04,0.04 -0.07,0.07 -0.11,0.11 -0.04,0.04 -0.08,0.08 -0.12,0.12 -0.04,0.04 -0.07,0.07 -0.1,0.11 -0.04,0.04 -0.08,0.08 -0.12,0.13 -0.03,0.04 -0.07,0.08 -0.1,0.11 -0.04,0.04 -0.08,0.08 -0.11,0.13 -0.03,0.04 -0.07,0.08 -0.1,0.12 -0.04,0.04 -0.07,0.09 -0.11,0.13 -0.03,0.04 -0.07,0.08 -0.1,0.12 -0.04,0.04 -0.07,0.09 -0.11,0.13 -0.03,0.04 -0.07,0.08 -0.1,0.12 -0.04,0.04 -0.07,0.09 -0.11,0.13 -0.03,0.04 -0.06,0.08 -0.1,0.12 -0.03,0.05 -0.07,0.09 -0.1,0.14 -0.03,0.04 -0.06,0.08 -0.09,0.13 -0.03,0.05 -0.07,0.09 -0.1,0.14 -0.03,0.04 -0.06,0.09 -0.09,0.13 -0.03,0.05 -0.06,0.09 -0.1,0.14 -0.03,0.04 -0.06,0.09 -0.09,0.13 -0.03,0.05 -0.06,0.1 -0.09,0.14 -0.03,0.05 -0.06,0.09 -0.09,0.14 -0.03,0.05 -0.06,0.1 -0.09,0.15 -0.03,0.05 -0.06,0.09 -0.09,0.14 -0.03,0.05 -0.06,0.1 -0.09,0.15 -0.03,0.05 -0.06,0.1 -0.09,0.14 -0.05,0.09 -0.1,0.18 -0.15,0.27 -0.13,0.22 -0.27,0.44 -0.41,0.66 -1.9,3.01 -3.1,6.2 -3.47,9.62 0,0.02 0,0.04 0,0.06 -0.01,0.1 -0.02,0.21 -0.03,0.31 0,0.04 0,0.08 -0.01,0.12 0,0.07 -0.01,0.14 -0.02,0.21 0,0.07 -0.01,0.15 -0.02,0.22 0,0.02 0,0.04 0,0.06 -0.05,0.85 -0.06,1.72 0,2.6 0.06,1.13 0.08,2.27 0.09,3.41 0,1.29 0,2.58 0,3.87 0.02,1.67 -0.32,3.28 -0.84,4.86 -0.69,2.06 -1.87,3.83 -3.22,5.5 -0.71,0.88 -1.3,1.79 -1.75,2.74 -0.04,0.09 -0.08,0.17 -0.12,0.26 -0.08,0.17 -0.15,0.35 -0.22,0.53 -0.03,0.09 -0.07,0.18 -0.1,0.27 -0.06,0.18 -0.12,0.36 -0.18,0.54 -0.16,0.55 -0.28,1.11 -0.35,1.68 -0.11,0.86 -0.12,1.75 -0.02,2.68 0.02,0.18 0.02,0.36 0,0.55 -0.01,0.18 -0.03,0.37 -0.04,0.55 -0.11,1.68 -0.73,3.21 -1.41,4.73 -0.2,0.46 -0.38,0.92 -0.53,1.39 -0.15,0.47 -0.26,0.95 -0.34,1.43 -0.09,0.58 -0.12,1.17 -0.08,1.78 0.05,0.74 0.02,1.47 -0.05,2.2 -0.07,0.73 -0.18,1.46 -0.28,2.18 -0.02,0.15 -0.04,0.3 -0.06,0.45 0,0.01 0,0.03 0,0.04 0,0.06 -0.01,0.12 -0.02,0.18 0,0.02 0,0.04 0,0.06 0,0.05 -0.01,0.1 -0.02,0.16 0,0.02 0,0.05 0,0.07 0,0.05 0,0.1 -0.01,0.15 0,0.03 0,0.05 0,0.08 0,0.05 0,0.09 -0.01,0.14 0,0.03 0,0.06 0,0.09 0,0.04 0,0.09 0,0.13 0,0.03 0,0.06 0,0.09 0,0.04 0,0.09 0,0.13 0,0.03 0,0.06 0,0.09 0,0.04 0,0.08 0,0.13 0,0.03 0,0.06 0,0.1 0,0.04 0,0.08 0,0.12 0,0.03 0,0.06 0,0.1 0,0.04 0,0.08 0,0.12 0,0.03 0,0.07 0,0.1 0,0.04 0,0.08 0,0.12 0,0.03 0,0.07 0,0.1 0,0.04 0,0.08 0,0.12 0,0.03 0,0.07 0,0.1 0,0.04 0,0.08 0,0.12 0,0.03 0,0.07 0,0.1 0,0.04 0,0.08 0,0.12 0,0.03 0,0.07 0,0.1 0,0.04 0,0.08 0.01,0.11 0,0.03 0,0.07 0.01,0.1 0,0.04 0,0.08 0.01,0.11 0,0.03 0,0.07 0.01,0.1 0,0.04 0.01,0.08 0.02,0.11 0,0.03 0.01,0.07 0.02,0.1 0,0.04 0.01,0.07 0.02,0.11 0,0.03 0.01,0.07 0.02,0.1 0,0.04 0.01,0.07 0.02,0.11 0,0.03 0.01,0.07 0.02,0.1 0,0.04 0.02,0.07 0.02,0.11 0,0.03 0.02,0.07 0.02,0.1 0,0.04 0.02,0.07 0.03,0.11 0,0.03 0.02,0.07 0.03,0.1 0,0.04 0.02,0.07 0.03,0.11 0,0.03 0.02,0.07 0.03,0.1 0.01,0.04 0.02,0.07 0.03,0.11 0.01,0.03 0.02,0.07 0.03,0.1 0.01,0.04 0.02,0.08 0.04,0.11 0.01,0.03 0.02,0.06 0.03,0.1 0.01,0.04 0.03,0.08 0.04,0.11 0.01,0.03 0.02,0.06 0.04,0.09 0.01,0.04 0.03,0.08 0.05,0.11 0.01,0.03 0.02,0.06 0.04,0.09 0.02,0.04 0.03,0.08 0.05,0.12 0.01,0.03 0.03,0.06 0.04,0.09 0.02,0.04 0.04,0.08 0.06,0.12 0.01,0.03 0.03,0.06 0.04,0.09 0.02,0.04 0.04,0.08 0.06,0.12 0.01,0.03 0.03,0.05 0.04,0.08 0.02,0.04 0.05,0.09 0.07,0.13 0.01,0.02 0.02,0.05 0.04,0.07 0.04,0.07 0.08,0.13 0.12,0.2 0.2,0.34 0.36,0.71 0.49,1.08 0.01,0.04 0.03,0.07 0.04,0.11 0.73,2.1 1.71,4.1 3.04,5.87 0.1,0.13 0.2,0.27 0.3,0.41 0.37,0.53 0.72,1.07 1.11,1.58 0.21,0.28 0.42,0.57 0.62,0.86 0,0 0.01,0.02 0.02,0.03 0.06,0.09 0.12,0.18 0.18,0.26 0.01,0.02 0.02,0.03 0.03,0.05 0.05,0.08 0.11,0.16 0.16,0.24 0.01,0.02 0.03,0.05 0.04,0.07 0.05,0.07 0.09,0.15 0.14,0.22 0.02,0.03 0.03,0.05 0.05,0.08 0.04,0.07 0.09,0.14 0.13,0.22 0.02,0.03 0.03,0.06 0.05,0.09 0.04,0.07 0.08,0.14 0.12,0.21 0.02,0.03 0.04,0.06 0.05,0.1 0.04,0.07 0.08,0.14 0.12,0.21 0.02,0.03 0.04,0.07 0.05,0.1 0.04,0.07 0.07,0.14 0.11,0.2 0.02,0.03 0.04,0.07 0.05,0.11 0.03,0.07 0.07,0.13 0.1,0.2 0.02,0.04 0.04,0.07 0.05,0.11 0.03,0.07 0.07,0.13 0.1,0.2 0.02,0.04 0.03,0.07 0.05,0.11 0.03,0.07 0.07,0.13 0.1,0.2 0.02,0.04 0.03,0.07 0.05,0.11 0.03,0.07 0.06,0.13 0.09,0.2 0.02,0.04 0.03,0.08 0.05,0.12 0.03,0.07 0.06,0.13 0.09,0.2 0.02,0.04 0.03,0.08 0.05,0.12 0.03,0.07 0.06,0.13 0.09,0.2 0.02,0.04 0.03,0.08 0.05,0.12 0.03,0.07 0.05,0.13 0.08,0.2 0.02,0.04 0.03,0.08 0.05,0.12 0.03,0.07 0.05,0.13 0.08,0.2 0.02,0.04 0.03,0.08 0.05,0.12 0.03,0.07 0.05,0.13 0.08,0.2 0.02,0.04 0.03,0.08 0.05,0.13 0.02,0.07 0.05,0.13 0.07,0.2 0.02,0.04 0.03,0.09 0.05,0.13 0.02,0.06 0.05,0.13 0.07,0.19 0.01,0.04 0.03,0.09 0.04,0.13 0.02,0.07 0.05,0.13 0.07,0.2 0.01,0.04 0.03,0.09 0.04,0.13 0.02,0.07 0.04,0.13 0.07,0.2 0.01,0.04 0.03,0.09 0.04,0.13 0.02,0.07 0.04,0.13 0.06,0.2 0.01,0.04 0.03,0.09 0.04,0.13 0.02,0.07 0.04,0.13 0.06,0.2 0.01,0.04 0.03,0.09 0.04,0.13 0.02,0.07 0.04,0.13 0.06,0.2 0.01,0.05 0.03,0.09 0.04,0.14 0.02,0.07 0.04,0.13 0.06,0.2 0.01,0.04 0.02,0.09 0.04,0.14 0.02,0.07 0.04,0.13 0.05,0.2 0.01,0.05 0.02,0.09 0.04,0.14 0.02,0.07 0.03,0.13 0.05,0.2 0.01,0.05 0.02,0.09 0.03,0.14 0.02,0.07 0.03,0.13 0.05,0.2 0.01,0.05 0.02,0.09 0.03,0.14 0.02,0.07 0.03,0.13 0.05,0.2 0.01,0.05 0.02,0.09 0.03,0.14 0.01,0.06 0.03,0.11 0.04,0.17 0.12,0.53 0.26,1.04 0.42,1.55 0.72,2.22 1.89,4.27 3.41,6.04 0.02,0.03 0.05,0.06 0.07,0.08 0.05,0.05 0.09,0.1 0.14,0.16 0.11,0.13 0.22,0.26 0.33,0.39 0.08,0.09 0.16,0.18 0.24,0.27 0.12,0.14 0.24,0.29 0.36,0.43 0.07,0.09 0.15,0.18 0.22,0.27 0.11,0.13 0.22,0.27 0.33,0.4 0.27,0.33 0.54,0.65 0.81,0.98 0.18,0.22 0.33,0.44 0.45,0.67 0.28,0.53 0.41,1.12 0.4,1.77 0,0.67 -0.11,1.3 -0.31,1.9 -0.05,0.15 -0.1,0.3 -0.16,0.45 -0.06,0.15 -0.12,0.29 -0.19,0.44 -0.14,0.29 -0.3,0.57 -0.48,0.85 -0.14,0.22 -0.27,0.44 -0.39,0.66 -0.38,0.71 -0.67,1.45 -0.86,2.24 -0.07,0.29 -0.13,0.58 -0.17,0.88 -0.05,0.31 -0.07,0.63 -0.09,0.94 -0.04,0.81 0.02,1.61 0.07,2.41 0.02,0.31 0.04,0.62 0.05,0.94 0.07,1.42 0.25,2.82 0.52,4.2 0.3,1.57 0.69,3.12 1.12,4.66 0,0.02 0,0.03 0.01,0.05 0.01,0.04 0.02,0.08 0.03,0.12 0,0.02 0.02,0.05 0.02,0.07 0,0.03 0.02,0.06 0.03,0.09 0,0.02 0.02,0.05 0.03,0.07 0.01,0.03 0.02,0.06 0.03,0.09 0,0.03 0.02,0.05 0.03,0.08 0.01,0.03 0.02,0.05 0.03,0.08 0.01,0.03 0.02,0.05 0.03,0.08 0.01,0.03 0.02,0.05 0.03,0.08 0.01,0.03 0.02,0.05 0.03,0.08 0.01,0.03 0.02,0.05 0.04,0.08 0.01,0.02 0.02,0.05 0.04,0.07 0.01,0.03 0.03,0.05 0.04,0.08 0.01,0.02 0.02,0.05 0.04,0.07 0.01,0.03 0.03,0.05 0.04,0.08 0.01,0.02 0.03,0.05 0.04,0.07 0.01,0.03 0.03,0.05 0.04,0.08 0.01,0.02 0.03,0.05 0.04,0.07 0.01,0.03 0.03,0.05 0.04,0.08 0.01,0.02 0.03,0.05 0.04,0.07 0.02,0.03 0.03,0.05 0.05,0.08 0.01,0.02 0.03,0.05 0.04,0.07 0.02,0.03 0.03,0.05 0.05,0.08 0.01,0.02 0.03,0.04 0.04,0.07 0.02,0.03 0.03,0.05 0.05,0.08 0.01,0.02 0.03,0.04 0.04,0.06 0.02,0.03 0.04,0.05 0.05,0.08 0.01,0.02 0.03,0.04 0.04,0.06 0.02,0.03 0.04,0.06 0.06,0.08 0.01,0.02 0.03,0.04 0.04,0.06 0.03,0.04 0.06,0.09 0.09,0.13 0.81,1.14 1.63,2.28 2.41,3.44 0.15,0.22 0.29,0.44 0.44,0.65 0.03,0.05 0.07,0.1 0.1,0.15 0.04,0.06 0.08,0.12 0.13,0.18 0.04,0.05 0.07,0.1 0.11,0.15 0.04,0.06 0.08,0.12 0.13,0.18 0.04,0.05 0.07,0.1 0.11,0.15 0.04,0.06 0.09,0.12 0.13,0.18 0.04,0.05 0.07,0.1 0.11,0.15 0.04,0.06 0.09,0.12 0.13,0.18 0.04,0.05 0.07,0.1 0.11,0.14 0.04,0.06 0.09,0.12 0.13,0.18 0.04,0.05 0.07,0.1 0.11,0.14 0.04,0.06 0.09,0.12 0.13,0.17 0.01,0.01 0.02,0.03 0.03,0.04 0.03,0.03 0.05,0.07 0.08,0.1 0.05,0.06 0.09,0.11 0.14,0.17 0.04,0.05 0.07,0.09 0.11,0.14 0.05,0.06 0.09,0.11 0.14,0.17 0.04,0.05 0.07,0.09 0.11,0.14 0.05,0.06 0.1,0.12 0.14,0.17 0.04,0.04 0.07,0.09 0.11,0.13 0.05,0.06 0.1,0.12 0.15,0.18 0.04,0.04 0.07,0.08 0.11,0.13 0.05,0.06 0.11,0.12 0.16,0.18 0.03,0.04 0.07,0.08 0.1,0.12 0.06,0.07 0.12,0.13 0.18,0.2 0.03,0.03 0.06,0.06 0.09,0.1 0.08,0.09 0.16,0.17 0.24,0.26 0.01,0.01 0.02,0.02 0.03,0.03 0.09,0.1 0.18,0.19 0.27,0.29 0.02,0.02 0.05,0.05 0.07,0.07 0.07,0.07 0.14,0.14 0.21,0.21 0.03,0.03 0.07,0.07 0.1,0.1 0.06,0.06 0.12,0.12 0.18,0.18 0.04,0.04 0.08,0.07 0.11,0.11 0.06,0.05 0.11,0.11 0.17,0.16 0.04,0.04 0.08,0.08 0.12,0.12 0.06,0.05 0.11,0.1 0.17,0.16 0.04,0.04 0.09,0.08 0.13,0.12 0.05,0.05 0.11,0.1 0.17,0.15 0.04,0.04 0.09,0.08 0.13,0.12 0.05,0.05 0.11,0.1 0.17,0.14 0.05,0.04 0.09,0.08 0.14,0.12 0.06,0.05 0.11,0.09 0.17,0.14 0.05,0.04 0.09,0.08 0.14,0.12 0.06,0.05 0.11,0.09 0.17,0.14 0.05,0.04 0.09,0.08 0.14,0.11 0.06,0.05 0.11,0.09 0.17,0.13 0.05,0.04 0.1,0.08 0.14,0.11 0.06,0.04 0.12,0.09 0.17,0.13 0.05,0.04 0.1,0.07 0.15,0.11 0.06,0.04 0.12,0.09 0.18,0.13 0.05,0.04 0.1,0.07 0.15,0.11 0.06,0.04 0.12,0.09 0.18,0.13 0.05,0.03 0.1,0.07 0.15,0.1 0.06,0.04 0.13,0.09 0.19,0.13 0.05,0.03 0.1,0.07 0.15,0.1 0.07,0.04 0.13,0.09 0.2,0.13 0.05,0.03 0.09,0.06 0.14,0.09 0.07,0.05 0.15,0.09 0.22,0.14 0.04,0.03 0.08,0.05 0.13,0.08 0.11,0.06 0.21,0.13 0.32,0.19 0.01,0 0.02,0.01 0.03,0.02 3.71,2.16 7.58,3.66 11.9,3.91 0.13,0 0.25,0.02 0.37,0.02 0.27,0 0.53,-0.04 0.76,-0.27 -0.06,-0.12 -0.15,-0.2 -0.24,-0.27 -0.09,-0.07 -0.2,-0.11 -0.3,-0.16 -0.13,-0.05 -0.26,-0.1 -0.38,-0.16 -2.5,-1.25 -4.82,-2.74 -6.8,-4.73 -0.09,-0.09 -0.17,-0.18 -0.25,-0.27 -0.31,-0.35 -0.58,-0.73 -0.76,-1.17 -0.03,-0.08 -0.04,-0.14 -0.03,-0.19 0.02,-0.1 0.12,-0.15 0.23,-0.18 0.05,-0.01 0.1,-0.02 0.15,-0.03 v 0 c 0,0 0,0 0,0 v 0 c -0.71,-0.75 -1.51,-1.4 -2.29,-2.06 -1.32,-1.12 -2.73,-2.14 -4.03,-3.27 -1.94,-1.69 -3.39,-3.66 -4.47,-5.86 -0.72,-1.46 -1.27,-3.01 -1.68,-4.64 -0.31,-1.21 -0.34,-2.46 -0.5,-3.69 -0.28,-2.2 -0.3,-4.38 0.39,-6.53 0.53,-1.65 1.2,-3.23 1.89,-4.82 0.09,-0.21 0.17,-0.43 0.23,-0.64 0.22,-0.8 0.19,-1.62 -0.15,-2.44 -0.37,-0.89 -0.88,-1.68 -1.58,-2.36 -3.39,-3.29 -5.64,-7.23 -6.73,-11.81 -0.6,-2.52 -1.53,-4.9 -2.72,-7.19 -0.91,-1.77 -2.16,-3.33 -3.21,-5.01 -0.97,-1.57 -1.78,-3.22 -2.36,-4.97 -0.4,-1.22 -0.07,-2.66 0.78,-3.23 1.4,-0.93 3,-1.23 4.65,-1.16 0.62,0.03 1.25,0.13 1.87,0.13 1.22,0 2.42,0.23 3.63,0.38 1.99,0.25 3.89,0.86 5.84,1.26 0.83,0.17 1.7,0.39 2.51,0.29 1,-0.13 1.99,-0.11 2.99,-0.17 0.99,-0.06 2.01,-0.07 2.98,-0.27 1.96,-0.41 3.95,-0.53 5.94,-0.6 0.37,-0.01 0.74,-0.02 1.1,-0.09 1.16,-0.2 2.12,0.24 2.68,1.25 1.14,2.04 1.22,4.21 0.67,6.41 -0.52,2.08 -1.61,3.84 -3.31,5.21 -1.09,0.87 -2.22,1.73 -3.18,2.74 -0.96,1 -1.83,2.11 -2.59,3.28 -0.66,1.01 -1.31,2.04 -2.38,2.71 -0.4,0.25 -0.68,0.66 -0.97,1.05 -0.93,1.3 -1.33,2.78 -1.49,4.32 -0.1,0.93 -0.17,1.9 0.19,2.83 0.43,1.1 0.71,1.2 1.79,0.54 -0.14,-0.02 -0.25,-0.06 -0.34,-0.11 -0.23,-0.12 -0.35,-0.33 -0.36,-0.7 -0.04,-2.04 0.49,-3.82 2.06,-5.26 1.36,-1.25 2.46,-2.75 3.45,-4.31 1.46,-2.31 3.33,-4.18 5.64,-5.7 2.52,-1.66 4.42,-3.87 5.27,-6.87 0.64,-2.27 1.32,-4.52 1.19,-6.91 -0.01,-0.26 -0.01,-0.52 -0.05,-0.77 -0.19,-1.18 -0.49,-1.49 -1.65,-1.77 -0.11,-0.03 -0.22,-0.03 -0.33,-0.05 -0.98,-0.23 -1.05,-0.43 -0.39,-1.21 0.55,-0.65 1.12,-1.28 1.67,-1.92 0.24,-0.28 0.49,-0.59 0.26,-0.99 -0.2,-0.35 -0.57,-0.29 -0.9,-0.29 -0.54,0 -1,0.25 -1.46,0.49 -0.82,0.42 -1.64,0.87 -2.48,1.24 -1.71,0.74 -2.39,0.78 -4.34,0.42 0.07,-0.44 0.48,-0.52 0.77,-0.72 0.37,-0.26 0.71,-0.55 0.86,-0.98 0.15,-0.44 -0.03,-0.8 -0.44,-1.02 -0.45,-0.24 -0.68,0.03 -0.85,0.41 -1.4,3.16 -6.03,3.81 -8.43,1.54 -0.39,-0.37 -0.8,-0.76 -1.34,-0.97 -0.59,-0.23 -1.16,-0.23 -1.71,0.07 -0.45,0.24 -0.49,0.51 -0.11,0.85 0.53,0.46 1.13,0.84 1.8,1.07 0.21,0.07 0.43,0.12 0.64,0.19 0.19,0.07 0.32,0.22 0.31,0.42 -0.02,0.2 -0.19,0.29 -0.39,0.34 -1.17,0.33 -2.35,0.29 -3.53,0.07 -1.68,-0.31 -3.27,-0.93 -4.92,-1.36 -2.12,-0.56 -4.26,-1 -6.48,-0.59 -0.07,0.01 -0.15,0.02 -0.22,0.02 -0.61,0 -1.17,-0.3 -1.15,-0.65 0.03,-0.62 0.55,-0.58 0.98,-0.65 1.75,-0.28 3.18,-1.18 4.43,-2.38 0.23,-0.22 0.55,-0.43 0.34,-0.83 -0.21,-0.39 -0.57,-0.3 -0.89,-0.25 -1.43,0.22 -2.83,0.56 -4.12,1.27 -0.91,0.5 -1.82,0.99 -2.74,1.48 -0.23,0.12 -0.46,0.24 -0.71,0.3 -0.36,0.08 -0.58,-0.16 -0.48,-0.51 0.05,-0.17 0.16,-0.33 0.25,-0.49 1.29,-2.15 2.64,-4.26 4.33,-6.13 0.84,-0.93 1.55,-1.97 2.3,-2.98 0.66,-0.89 1.39,-1.72 2.16,-2.51 1.63,-1.68 3.69,-2.24 5.93,-2.36 2.69,-0.14 5.32,0.28 7.95,0.76 4.56,0.83 9.13,1.55 13.75,1.92 2.16,0.18 4.33,0.24 6.46,0.71 0.16,0.04 0.32,0.07 0.48,0.11 v 0 c -0.38,-0.63 -0.98,-1.01 -1.62,-1.27 z"
             id="path76" />
          <path
             class="cls-4"
             d="m 249.22,48.26 -5.58,-1.64 -15.02,-4.41 c -0.16,-0.02 -0.31,0 -0.46,0.03 -0.42,0.12 -0.75,0.48 -0.83,0.93 0,6.05 0,12.34 0,18.4 v 0 -0.09 c 0,0 0,0.04 0,0.09 0,6.29 0,11.73 0,18.02 l 0.02,1.16 c 0,0.52 0.37,0.96 0.85,1.08 0.09,0.02 0.18,0.04 0.28,0.04 h 29.15 c 0.18,0 0.36,0 0.54,0 0.54,-0.03 0.97,-0.47 0.97,-1.02 V 61.64 c 0,-6.19 -4.05,-11.64 -9.93,-13.37 z"
             id="path77" />
          <path
             class="cls-6"
             d="m 109.85,237.54 c 0.56,0 1.08,-0.17 1.58,-0.4 v 0 c -0.1,0 -0.2,-0.02 -0.3,-0.02 -0.08,0 -0.17,-0.01 -0.25,0 0,0 0,0 0,0 -0.2,0 -0.39,0.01 -0.59,0.02 -0.06,0 -0.13,0 -0.19,0 -0.13,0 -0.27,0 -0.4,0 -0.08,0 -0.16,0 -0.23,0 -0.12,0 -0.24,0 -0.36,0 -0.08,0 -0.17,0 -0.25,0 -0.11,0 -0.23,0 -0.34,0 -0.09,0 -0.17,0 -0.26,0 -0.11,0 -0.22,0 -0.33,0 -0.09,0 -0.18,0 -0.27,0 -0.11,0 -0.22,0 -0.33,0 -0.09,0 -0.18,0 -0.27,0 -0.11,0 -0.21,0 -0.32,0 -0.09,0 -0.18,0 -0.28,0 -0.1,0 -0.21,0 -0.31,0 -0.09,0 -0.19,0 -0.28,0 -0.1,0 -0.21,0 -0.31,-0.01 -0.09,0 -0.18,0 -0.28,-0.01 -0.1,0 -0.21,0 -0.31,-0.01 -0.09,0 -0.18,0 -0.28,-0.01 -0.1,0 -0.21,-0.01 -0.31,-0.02 -0.09,0 -0.19,0 -0.28,-0.02 -0.1,0 -0.21,-0.01 -0.31,-0.02 -0.09,0 -0.19,-0.01 -0.28,-0.02 -0.1,0 -0.21,-0.01 -0.31,-0.02 -0.09,0 -0.19,-0.01 -0.28,-0.02 -0.1,0 -0.21,-0.01 -0.31,-0.02 -0.09,0 -0.19,-0.01 -0.28,-0.02 -0.1,0 -0.21,-0.02 -0.31,-0.02 -0.09,0 -0.19,-0.02 -0.28,-0.02 -0.1,0 -0.21,-0.02 -0.31,-0.03 -0.09,0 -0.19,-0.02 -0.28,-0.02 -0.1,0 -0.21,-0.02 -0.31,-0.03 -0.09,0 -0.18,-0.02 -0.28,-0.03 -0.1,-0.01 -0.21,-0.02 -0.31,-0.03 -0.09,0 -0.18,-0.02 -0.28,-0.03 -0.1,-0.01 -0.21,-0.02 -0.31,-0.03 -0.09,-0.01 -0.18,-0.02 -0.27,-0.03 -0.1,-0.01 -0.21,-0.02 -0.31,-0.04 -0.09,-0.01 -0.18,-0.02 -0.27,-0.03 -0.11,-0.01 -0.21,-0.03 -0.32,-0.04 -0.09,-0.01 -0.18,-0.02 -0.27,-0.03 -0.11,-0.01 -0.21,-0.03 -0.32,-0.04 -0.09,-0.01 -0.18,-0.02 -0.27,-0.03 -0.11,-0.01 -0.22,-0.03 -0.33,-0.04 -0.09,-0.01 -0.17,-0.02 -0.26,-0.04 -0.11,-0.02 -0.22,-0.03 -0.33,-0.05 -0.09,-0.01 -0.17,-0.02 -0.26,-0.04 -0.11,-0.02 -0.23,-0.03 -0.34,-0.05 -0.08,-0.01 -0.16,-0.02 -0.24,-0.04 -0.13,-0.02 -0.25,-0.04 -0.38,-0.06 -0.07,-0.01 -0.14,-0.02 -0.21,-0.03 -0.17,-0.03 -0.34,-0.05 -0.5,-0.08 -0.04,0 -0.08,-0.01 -0.11,-0.02 -0.18,-0.03 -0.37,-0.06 -0.55,-0.09 -0.07,-0.01 -0.14,-0.02 -0.2,-0.04 -0.13,-0.02 -0.25,-0.04 -0.38,-0.07 -0.08,-0.01 -0.16,-0.03 -0.24,-0.04 -0.11,-0.02 -0.23,-0.04 -0.34,-0.06 -0.09,-0.02 -0.17,-0.03 -0.26,-0.05 -0.09,-0.02 -0.19,-0.04 -0.28,-0.05 -0.01,0 -0.03,0 -0.04,0 -0.17,-0.03 -0.34,-0.07 -0.52,-0.1 -7.41,-1.46 -14.58,-3.66 -21.43,-6.85 -0.16,-0.08 -0.33,-0.15 -0.49,-0.23 -0.58,-0.27 -1.16,-0.55 -1.74,-0.83 -0.29,-0.14 -0.57,-0.27 -0.86,-0.41 -0.06,-0.03 -0.13,-0.06 -0.19,-0.09 -0.29,-0.14 -0.58,-0.27 -0.87,-0.41 -0.04,-0.02 -0.08,-0.04 -0.11,-0.05 -0.27,-0.13 -0.54,-0.25 -0.81,-0.38 -0.05,-0.02 -0.1,-0.05 -0.15,-0.07 -0.29,-0.13 -0.57,-0.26 -0.86,-0.39 -0.06,-0.03 -0.12,-0.06 -0.19,-0.08 -0.3,-0.13 -0.59,-0.26 -0.89,-0.4 -0.02,-0.01 -0.05,-0.02 -0.07,-0.03 -0.28,-0.12 -0.56,-0.25 -0.85,-0.37 -0.06,-0.02 -0.11,-0.05 -0.17,-0.07 -0.29,-0.12 -0.58,-0.25 -0.88,-0.37 -0.06,-0.02 -0.12,-0.05 -0.18,-0.07 -0.3,-0.12 -0.61,-0.25 -0.92,-0.37 -0.69,-0.27 -1.36,-0.58 -2.1,-0.72 -0.16,-0.03 -0.31,-0.04 -0.45,-0.04 -0.48,0 -0.9,0.17 -1.22,0.49 -0.1,0.1 -0.18,0.21 -0.26,0.33 -0.04,0.06 -0.07,0.12 -0.1,0.18 0,0.02 -0.02,0.04 -0.03,0.06 -0.02,0.04 -0.04,0.08 -0.06,0.13 -0.01,0.02 -0.02,0.05 -0.03,0.07 -0.02,0.04 -0.03,0.08 -0.04,0.12 0,0.03 -0.02,0.05 -0.03,0.08 -0.01,0.04 -0.02,0.08 -0.03,0.11 0,0.03 -0.01,0.05 -0.02,0.08 0,0.04 -0.02,0.08 -0.03,0.11 0,0.03 -0.01,0.06 -0.02,0.08 0,0.04 -0.01,0.08 -0.02,0.12 0,0.03 0,0.06 -0.01,0.09 0,0.04 0,0.08 -0.01,0.12 0,0.03 0,0.06 0,0.09 0,0.06 0,0.12 0,0.19 0,1.23 -0.07,2.46 -0.22,3.69 0,0.04 0,0.07 0,0.11 0,0.04 0,0.09 -0.01,0.13 0,0.02 0,0.04 0,0.07 0,0.01 0,0.02 0,0.03 0,0.04 0,0.08 0,0.12 0,0.03 0,0.06 0,0.1 0,0.04 0,0.08 0,0.12 0,0.03 0,0.06 0.01,0.09 0,0.04 0,0.08 0.01,0.11 0,0.03 0.01,0.06 0.02,0.09 0,0.04 0.01,0.07 0.02,0.11 0,0.03 0.02,0.06 0.03,0.08 0.01,0.03 0.02,0.07 0.03,0.1 0,0.03 0.02,0.05 0.03,0.08 0.01,0.03 0.02,0.07 0.04,0.1 0.01,0.03 0.03,0.05 0.04,0.08 0.02,0.03 0.03,0.06 0.05,0.1 0.01,0.03 0.03,0.05 0.04,0.07 0.02,0.03 0.03,0.06 0.05,0.09 0.02,0.02 0.03,0.05 0.05,0.07 0.02,0.03 0.04,0.06 0.06,0.09 0.02,0.02 0.04,0.05 0.06,0.07 0.02,0.03 0.04,0.06 0.07,0.08 0.02,0.03 0.04,0.05 0.07,0.07 0.02,0.02 0.04,0.05 0.07,0.07 0.03,0.03 0.05,0.05 0.08,0.08 0.02,0.02 0.04,0.04 0.07,0.07 0.03,0.03 0.07,0.06 0.1,0.09 0.02,0.02 0.04,0.03 0.06,0.05 0.05,0.04 0.11,0.09 0.16,0.13 0,0 0,0 0,0 0.06,0.04 0.12,0.09 0.18,0.13 0.4,0.28 0.81,0.56 1.22,0.83 1.77,1.19 3.59,2.3 5.49,3.29 2.64,1.38 5.34,2.59 8.08,3.65 1.52,0.59 3.06,1.13 4.61,1.62 1.24,0.4 2.49,0.76 3.75,1.1 0.63,0.17 1.26,0.33 1.89,0.49 1.27,0.31 2.54,0.6 3.82,0.86 2.56,0.52 5.16,0.94 7.78,1.28 1.12,0.14 2.17,0.39 3.15,0.76 0.18,0.07 0.35,0.14 0.52,0.22 0.17,0.08 0.34,0.16 0.51,0.24 0.25,0.13 0.49,0.27 0.73,0.42 1.1,0.7 2.06,1.65 2.86,2.89 0.2,0.32 0.42,0.62 0.64,0.93 0.01,0.02 0.02,0.03 0.04,0.05 0.01,0.01 0.02,0.03 0.03,0.04 0.52,0.7 1.08,1.37 1.65,2.04 0.19,0.23 0.39,0.45 0.58,0.68 0,0 0,0 0,0 1.06,1.22 2.59,1.14 3.46,-0.16 0.01,-0.02 0.03,-0.04 0.04,-0.06 0,0 0,-0.01 0.01,-0.02 0.02,-0.04 0.05,-0.08 0.07,-0.12 0.04,-0.07 0.08,-0.13 0.11,-0.2 0.03,-0.05 0.05,-0.1 0.08,-0.15 0.04,-0.07 0.07,-0.14 0.11,-0.21 0.03,-0.05 0.05,-0.1 0.08,-0.15 0.04,-0.07 0.07,-0.14 0.11,-0.21 0.03,-0.05 0.05,-0.1 0.08,-0.15 0.04,-0.07 0.07,-0.14 0.11,-0.22 0.02,-0.05 0.05,-0.1 0.07,-0.14 0.04,-0.08 0.08,-0.15 0.12,-0.23 0.02,-0.04 0.04,-0.09 0.07,-0.13 0.06,-0.12 0.12,-0.23 0.18,-0.35 0.12,-0.24 0.24,-0.48 0.37,-0.72 v 0 c -0.58,-0.14 -0.51,-0.67 -0.6,-1.06 -0.62,-2.58 -1.15,-5.19 -1.81,-7.76 -0.52,-2.02 1.32,-3.99 2.9,-3.98 z"
             id="path78" />
          <path
             class="cls-6"
             d="m 49.2,171.11 c 0,-0.13 -0.01,-0.25 -0.02,-0.38 -0.08,-1.28 -0.22,-2.55 -0.47,-3.82 -0.91,-4.71 -1.29,-9.46 -0.78,-14.26 0.02,-0.22 0.05,-0.44 0.08,-0.65 0.12,-0.94 0.26,-1.87 0.19,-2.7 0.03,-1.59 -0.19,-3.05 -0.63,-4.43 -0.08,-0.26 -0.17,-0.51 -0.27,-0.77 -0.06,-0.17 -0.13,-0.34 -0.2,-0.5 -0.07,-0.17 -0.15,-0.33 -0.22,-0.49 -0.04,-0.08 -0.08,-0.16 -0.12,-0.24 -0.32,-0.65 -0.7,-1.28 -1.13,-1.9 -0.51,-0.75 -1.09,-1.39 -1.71,-1.95 -0.47,-0.42 -0.96,-0.78 -1.48,-1.09 -0.44,-0.26 -0.89,-0.49 -1.36,-0.69 -0.19,-0.08 -0.38,-0.15 -0.57,-0.22 -1.07,-0.38 -2.21,-0.62 -3.43,-0.73 -0.12,-0.01 -0.23,-0.02 -0.34,-0.02 -0.73,0 -1.06,0.3 -1.39,1.06 -0.46,1.06 -0.37,2.16 -0.27,3.26 0,0.04 0.01,0.08 0.02,0.12 0.03,0.09 0.08,0.17 0.17,0.22 0.04,0.02 0.09,0.04 0.14,0.04 0.03,0 0.05,0 0.08,0 0.07,0 0.14,-0.03 0.19,-0.08 0.07,-0.06 0.12,-0.13 0.16,-0.22 0.11,-0.21 0.2,-0.43 0.3,-0.65 0.1,-0.22 0.2,-0.44 0.3,-0.65 0.19,-0.38 0.44,-0.71 0.92,-0.69 v 0 c 2.06,0.05 3.99,0.4 5.3,2.23 0.54,0.75 1.05,1.52 1.46,2.34 0.71,1.42 1.5,2.86 1.6,4.44 0.15,2.2 0.01,4.44 -0.74,6.54 -0.79,2.2 -0.87,4.35 -0.33,6.48 0.15,0.6 0.35,1.19 0.61,1.79 0.3,0.71 0.58,1.43 0.89,2.14 0.07,0.15 0.11,0.29 0.15,0.44 0.11,0.47 0.03,0.91 -0.23,1.32 -0.08,0.12 -0.18,0.24 -0.29,0.36 -0.16,0.17 -0.33,0.33 -0.5,0.5 -0.48,0.48 -0.97,0.95 -1.38,1.5 -0.09,0.13 -0.18,0.26 -0.27,0.39 -0.02,0.03 -0.03,0.05 -0.05,0.07 -0.07,0.08 -0.15,0.13 -0.25,0.12 -0.02,0 -0.04,0 -0.06,-0.01 -0.05,-0.01 -0.09,-0.04 -0.12,-0.06 -0.08,-0.07 -0.1,-0.18 -0.11,-0.29 0,-0.03 0,-0.07 0,-0.1 0,-0.15 0,-0.3 0,-0.45 0,-0.01 0,-0.02 0,-0.03 0,-0.44 0.02,-0.88 0,-1.33 0,-0.17 -0.02,-0.34 -0.04,-0.51 -0.05,-0.36 -0.11,-0.72 -0.19,-1.07 -0.36,-1.51 -1.04,-2.9 -1.9,-4.22 -0.19,-0.29 -0.37,-0.58 -0.56,-0.87 -0.46,-0.73 -0.91,-1.46 -1.36,-2.19 -0.18,-0.29 -0.36,-0.59 -0.53,-0.88 -0.02,-0.04 -0.05,-0.08 -0.07,-0.12 0,0 0,-0.01 0,-0.02 -0.02,-0.03 -0.03,-0.06 -0.05,-0.09 0,-0.01 0,-0.02 -0.01,-0.03 -0.01,-0.02 -0.02,-0.05 -0.03,-0.07 0,-0.01 0,-0.02 -0.01,-0.03 0,-0.02 -0.02,-0.04 -0.02,-0.06 0,-0.01 0,-0.02 -0.01,-0.03 0,-0.02 -0.01,-0.03 -0.01,-0.05 0,-0.01 0,-0.02 0,-0.03 0,-0.01 0,-0.03 0,-0.04 0,-0.01 0,-0.02 0,-0.03 0,-0.01 0,-0.03 0,-0.04 0,-0.01 0,-0.02 0,-0.03 0,-0.01 0,-0.03 0,-0.04 0,-0.01 0,-0.02 0,-0.03 0,-0.01 0,-0.02 0.01,-0.04 0,-0.01 0,-0.02 0.01,-0.03 0,-0.01 0.01,-0.02 0.02,-0.03 0,-0.01 0.01,-0.02 0.02,-0.03 0,-0.01 0.01,-0.02 0.02,-0.03 0,-0.01 0.02,-0.02 0.02,-0.03 0,-0.01 0.02,-0.02 0.03,-0.03 0,-0.01 0.02,-0.02 0.03,-0.03 0.01,-0.01 0.02,-0.02 0.03,-0.04 0.01,-0.01 0.02,-0.02 0.04,-0.04 0.01,-0.01 0.02,-0.02 0.04,-0.04 0.01,-0.01 0.03,-0.03 0.04,-0.04 0.01,-0.01 0.03,-0.02 0.04,-0.04 0.02,-0.01 0.03,-0.03 0.05,-0.04 0,0 0.01,-0.01 0.02,-0.02 0,0 0,0 0.01,0 0.01,-0.01 0.03,-0.02 0.04,-0.03 0.02,-0.02 0.04,-0.03 0.06,-0.05 0,0 0,0 0,0 0.04,-0.03 0.08,-0.06 0.12,-0.09 0,0 0,0 0,0 0.03,-0.02 0.07,-0.05 0.1,-0.07 0.05,-0.04 0.1,-0.07 0.15,-0.1 0.04,-0.03 0.08,-0.06 0.13,-0.09 0.02,-0.02 0.04,-0.03 0.07,-0.05 0.03,-0.02 0.06,-0.04 0.09,-0.06 0.02,-0.02 0.04,-0.03 0.07,-0.05 0.03,-0.02 0.05,-0.04 0.08,-0.06 0.02,-0.02 0.04,-0.03 0.07,-0.05 0.03,-0.02 0.05,-0.04 0.08,-0.06 0.02,-0.02 0.04,-0.04 0.06,-0.05 0.02,-0.02 0.05,-0.04 0.07,-0.06 0.02,-0.02 0.04,-0.04 0.06,-0.06 0.02,-0.02 0.05,-0.04 0.07,-0.07 0.02,-0.02 0.04,-0.04 0.06,-0.06 0.02,-0.02 0.04,-0.05 0.07,-0.07 0.02,-0.02 0.04,-0.04 0.06,-0.06 0.02,-0.02 0.04,-0.05 0.06,-0.07 0.02,-0.02 0.04,-0.04 0.06,-0.06 0.02,-0.02 0.04,-0.05 0.06,-0.07 0.02,-0.02 0.04,-0.04 0.05,-0.07 0.02,-0.02 0.04,-0.05 0.06,-0.08 0.02,-0.02 0.03,-0.05 0.05,-0.07 0.02,-0.03 0.04,-0.05 0.05,-0.08 0.02,-0.02 0.03,-0.05 0.05,-0.07 0.02,-0.03 0.03,-0.06 0.05,-0.08 0.01,-0.02 0.03,-0.05 0.04,-0.07 0.02,-0.03 0.03,-0.06 0.05,-0.09 0.01,-0.02 0.03,-0.05 0.04,-0.07 0.02,-0.03 0.03,-0.06 0.04,-0.09 0.01,-0.02 0.02,-0.05 0.03,-0.07 0.01,-0.03 0.03,-0.07 0.04,-0.1 0,-0.02 0.02,-0.05 0.03,-0.07 0.02,-0.05 0.03,-0.1 0.05,-0.15 0,-0.01 0,-0.02 0.01,-0.03 0.06,-0.19 0.16,-0.34 0.29,-0.47 0.12,-0.13 0.27,-0.24 0.41,-0.36 0.3,-0.27 0.5,-0.53 0.59,-0.79 0.03,-0.09 0.05,-0.18 0.06,-0.28 0,-0.16 -0.03,-0.31 -0.11,-0.47 -0.01,-0.02 -0.02,-0.04 -0.04,-0.07 -0.12,-0.2 -0.31,-0.39 -0.58,-0.57 -0.16,-0.11 -0.32,-0.22 -0.48,-0.32 -0.53,-0.34 -1.07,-0.66 -1.6,-0.98 -0.19,-0.11 -0.37,-0.22 -0.56,-0.33 -0.05,-0.03 -0.1,-0.06 -0.15,-0.09 -0.09,-0.05 -0.19,-0.1 -0.29,-0.1 -0.04,0 -0.09,0 -0.14,0.02 -0.05,0.02 -0.09,0.05 -0.14,0.09 -0.11,0.11 -0.14,0.23 -0.14,0.35 0,0.12 0.06,0.25 0.11,0.37 0.06,0.13 0.12,0.27 0.19,0.4 0.13,0.28 0.27,0.56 0.4,0.84 0.06,0.12 0.11,0.24 0.16,0.36 0.55,1.27 0.33,2.12 -0.78,3.01 -0.32,0.25 -0.66,0.47 -0.98,0.72 -0.95,0.75 -1.27,1.45 -1,2.36 0.01,0.04 0.02,0.07 0.04,0.11 0.08,0.22 0.19,0.45 0.34,0.7 0.12,0.2 0.23,0.39 0.35,0.59 0.3,0.49 0.62,0.98 0.94,1.46 0.13,0.19 0.25,0.37 0.38,0.56 0.16,0.23 0.31,0.47 0.44,0.71 0.46,0.8 0.81,1.64 1.06,2.52 0.08,0.27 0.14,0.53 0.2,0.81 0.1,0.47 0.21,0.94 0.32,1.41 0.12,0.51 0.25,1.02 0.38,1.53 0.18,0.69 0.38,1.38 0.59,2.06 0.14,0.46 0.29,0.92 0.45,1.38 0.09,0.25 0.18,0.5 0.28,0.74 0.34,0.85 0.77,1.65 1.37,2.37 0.75,0.9 1.87,1.44 3.04,1.37 0.03,0 0.05,0 0.08,0 0.03,0 0.05,0 0.08,0 0.03,0 0.05,0 0.08,0 0.03,0 0.05,0 0.08,-0.01 0.03,0 0.05,0 0.08,-0.01 0.03,0 0.05,0 0.08,-0.01 0.02,0 0.05,0 0.07,-0.01 0.03,0 0.05,-0.01 0.08,-0.02 0.02,0 0.05,-0.01 0.07,-0.02 0.03,0 0.05,-0.01 0.07,-0.02 0.02,0 0.05,-0.01 0.07,-0.02 0.02,0 0.05,-0.02 0.07,-0.02 0.02,0 0.05,-0.01 0.07,-0.02 0.02,0 0.05,-0.02 0.07,-0.03 0.02,0 0.04,-0.02 0.07,-0.03 0.02,0 0.05,-0.02 0.07,-0.03 0.02,0 0.04,-0.02 0.06,-0.03 0.02,-0.01 0.04,-0.02 0.07,-0.03 0.02,-0.01 0.04,-0.02 0.06,-0.03 0.02,-0.01 0.04,-0.02 0.06,-0.04 0.02,-0.01 0.04,-0.02 0.06,-0.03 0.02,-0.01 0.04,-0.03 0.06,-0.04 0.02,-0.01 0.04,-0.02 0.06,-0.04 0.02,-0.01 0.04,-0.03 0.06,-0.04 0.02,-0.01 0.04,-0.03 0.05,-0.04 0.02,-0.01 0.04,-0.03 0.06,-0.05 0.02,-0.01 0.03,-0.03 0.05,-0.04 0.02,-0.02 0.04,-0.03 0.05,-0.05 0.02,-0.01 0.03,-0.03 0.05,-0.04 0.02,-0.02 0.03,-0.03 0.05,-0.05 0.02,-0.02 0.03,-0.03 0.05,-0.05 0.02,-0.02 0.03,-0.04 0.05,-0.05 0.01,-0.02 0.03,-0.03 0.04,-0.05 0.02,-0.02 0.03,-0.04 0.05,-0.06 0.01,-0.02 0.03,-0.03 0.04,-0.05 0.01,-0.02 0.03,-0.04 0.04,-0.06 0.01,-0.02 0.03,-0.04 0.04,-0.05 0.01,-0.02 0.03,-0.04 0.04,-0.06 0.01,-0.02 0.02,-0.04 0.04,-0.05 0.01,-0.02 0.03,-0.04 0.04,-0.07 0.01,-0.02 0.02,-0.04 0.03,-0.06 0.01,-0.02 0.02,-0.05 0.04,-0.07 0,-0.02 0.02,-0.04 0.03,-0.06 0.01,-0.02 0.02,-0.05 0.03,-0.07 0,-0.02 0.02,-0.04 0.03,-0.06 0,-0.02 0.02,-0.05 0.03,-0.07 0,-0.02 0.02,-0.04 0.02,-0.06 0,-0.03 0.02,-0.05 0.03,-0.08 0,-0.02 0.01,-0.04 0.02,-0.06 0,-0.03 0.02,-0.05 0.02,-0.08 0,-0.02 0.01,-0.04 0.02,-0.06 0,-0.03 0.01,-0.06 0.02,-0.09 0,-0.02 0.01,-0.04 0.01,-0.06 0,-0.03 0.01,-0.06 0.02,-0.1 0,-0.02 0,-0.04 0.01,-0.06 0,-0.04 0.01,-0.07 0.02,-0.11 0,-0.02 0,-0.03 0,-0.05 0,-0.04 0,-0.09 0.01,-0.13 0,-0.01 0,-0.02 0,-0.03 0.01,-0.17 0.02,-0.34 0.01,-0.51 0,-0.35 -0.02,-0.7 -0.04,-1.06 z"
             id="path79" />
          <path
             class="cls-6"
             d="m 122.16,219.54 c -1.03,0.2 -2.07,0.39 -3.11,0.56 -2.67,0.45 -5.35,0.81 -8.04,1.08 -1.05,0.1 -2.1,0.19 -3.15,0.26 -0.7,0.05 -1.39,0.13 -2.07,0.26 -0.34,0.07 -0.67,0.15 -1,0.25 -0.76,0.23 -1.5,0.57 -2.19,1.03 -3.13,2.12 -3.49,5.72 -0.83,8.41 1.5,1.52 3.37,2.36 5.42,2.86 0.68,0.16 1.37,0.3 2.05,0.4 1.77,0.28 3.55,0.41 5.34,0.52 0.69,0.04 1.39,0.08 2.08,0.13 0.65,0.04 1.3,0.06 1.94,0.06 1.4,0 2.8,-0.11 4.19,-0.33 0.53,-0.08 1.07,-0.19 1.6,-0.31 0.11,-0.03 0.23,-0.06 0.35,-0.09 0.12,-0.03 0.24,-0.04 0.36,-0.02 0.14,0.03 0.27,0.11 0.37,0.3 0.38,-0.05 0.64,-0.25 0.59,-0.65 -0.05,-0.41 -0.4,-0.49 -0.76,-0.47 -0.26,0.01 -0.51,0.06 -0.76,0.11 -2.14,0.41 -4.28,0.86 -6.47,0.75 -1.28,-0.06 -2.57,-0.27 -3.85,-0.39 -2.7,-0.25 -5.32,-0.81 -7.84,-1.8 -1.1,-0.43 -1.88,-1.18 -2.16,-2.33 -0.43,-1.72 -0.17,-3.36 1.37,-4.39 0.88,-0.59 1.85,-0.9 2.84,-1.21 1.55,-0.48 3.16,-0.19 4.74,-0.39 1.79,-0.23 3.59,-0.38 5.37,-0.7 4.31,-0.79 8.29,-2.38 11.93,-4.81 0.83,-0.55 1.57,-1.18 2.22,-1.86 1.25,-1.31 2.17,-2.87 2.82,-4.64 0.26,-0.72 0.15,-1.29 -0.48,-1.73 0,0 0.1,0.85 -0.63,1.89 -0.73,1.03 -4.52,5.75 -12.25,7.25 z"
             id="path80" />
          <path
             class="cls-10"
             d="m 212.9,281.74 c 0.21,-0.17 0.41,-0.33 0.62,-0.5 0,0 0,0 0,0 l -0.61,0.5 z"
             id="path81" />
          <path
             class="cls-10"
             d="m 213.93,280.91 c 0.48,-0.4 0.96,-0.79 1.43,-1.2 l -1.78,1.48 c 0.12,-0.09 0.23,-0.19 0.35,-0.28 z"
             id="path82" />
          <path
             class="cls-6"
             d="m 95.97,191.86 c -2.98,-0.54 -5.83,-1.35 -8.27,-3.25 -1.27,-0.98 -2.79,-1.51 -4.35,-1.89 -0.89,-0.22 -1.16,-0.12 -1.69,0.62 -0.21,0.3 -0.38,0.63 -0.6,0.92 -0.35,0.46 -0.74,0.42 -0.88,-0.13 -0.42,-1.68 -0.2,-3.29 0.83,-4.73 0.37,-0.52 0.73,-0.54 1.2,-0.11 0.97,0.88 2.11,1.16 3.39,1.02 -0.84,-1.02 -1.38,-2.16 -1.35,-3.51 0,-0.11 -0.04,-0.22 -0.06,-0.32 -0.33,-1.3 -1.25,-1.61 -2.29,-0.72 -0.53,0.45 -1,0.99 -1.5,1.47 -2.05,1.94 -2.79,4.27 -2.11,7 0.31,1.27 0.91,2.4 1.82,3.35 0.58,0.6 0.87,0.62 1.52,0.1 0.37,-0.3 0.69,-0.66 1.04,-1 0.88,-0.85 1.25,-0.87 2.12,0.02 1.4,1.44 2.93,2.64 4.85,3.4 1.97,0.78 2.57,3.02 1.42,4.78 -0.3,0.46 -0.7,0.85 -1.03,1.3 -0.28,0.39 -0.61,0.84 -0.28,1.31 0.31,0.45 0.82,0.6 1.38,0.43 0.6,-0.18 1.22,-0.3 1.8,-0.55 0.99,-0.43 1.99,-0.72 3.11,-0.72 0.8,0 1.6,-0.2 2.4,-0.36 1.56,-0.32 3.02,-1.03 4.57,-1.31 2.89,-0.53 5.81,-0.38 8.71,0.06 0.73,0.11 1.43,0.39 2.18,0.32 0.22,-0.02 0.47,0.02 0.58,-0.22 0.14,-0.3 -0.08,-0.48 -0.25,-0.67 -0.34,-0.36 -0.75,-0.57 -1.25,-0.67 -1.41,-0.28 -2.82,-0.57 -4.22,-0.87 -0.78,-0.17 -1.46,-0.54 -1.99,-1.13 -0.83,-0.93 -0.46,-1.95 0.76,-2.19 0.5,-0.1 1.02,-0.13 1.47,-0.41 -1.11,-0.03 -2.22,-0.03 -3.33,-0.1 -3.25,-0.21 -6.48,-0.67 -9.68,-1.25 z"
             id="path83" />
          <path
             class="cls-6"
             d="m 112.74,175.28 v 0 c -0.09,0.09 -0.19,0.19 -0.28,0.28 -0.06,0.06 -0.13,0.13 -0.19,0.19 -0.93,0.89 -1.2,0.88 -2.01,-0.15 -0.5,-0.64 -0.93,-1.33 -1.44,-1.96 -1.27,-1.57 -3.04,-1.72 -4.56,-0.41 -0.62,0.53 -1.19,1.1 -1.8,1.63 -0.74,0.65 -1.15,0.69 -1.98,0.12 -2.31,-1.56 -4.35,-3.42 -6.05,-5.63 -0.53,-0.69 -0.84,-1.46 -0.88,-2.33 -0.03,-0.66 -0.09,-1.32 -0.14,-1.98 -0.03,-0.43 -0.19,-0.85 -0.63,-0.95 -0.87,-0.2 -1.8,-0.34 -2.59,0.18 -2.37,1.53 -4.52,3.33 -6.18,5.63 -0.18,0.26 -0.43,0.52 -0.28,0.87 0.02,0.04 0.04,0.08 0.07,0.12 0.57,-0.36 0.98,-0.87 1.4,-1.39 0.9,-1.08 1.83,-2.15 3.23,-2.59 2.15,-0.68 3.1,-0.04 2.97,2.01 -0.08,1.24 0.35,2.35 1.2,3.33 0.55,0.64 1.18,1.22 1.69,1.89 1.17,1.57 2.68,2.75 4.34,3.71 2.52,1.47 5.12,1.9 7.72,0.09 0.3,-0.21 0.63,-0.4 1.02,-0.42 1.3,-0.08 2.95,1.25 3.19,2.58 0.08,0.46 0.09,1.11 0.72,1.03 0.57,-0.07 0.41,-0.72 0.38,-1.12 -0.09,-1.06 0.12,-2.03 0.66,-2.95 0.31,-0.54 0.53,-1.13 0.44,-1.79 z"
             id="path84" />
          <path
             class="cls-6"
             d="m 118.93,152.16 c 0.92,1.34 1.29,2.85 1.41,4.45 0.08,1.1 0.27,2.18 1.1,3.03 0.17,-0.78 0.31,-0.86 0.99,-0.44 1.38,0.87 2.66,1.86 3.89,2.92 2.75,2.37 4.71,5.25 5.68,8.76 0.19,0.71 0.48,1.39 0.71,2.08 0.13,0.4 0.23,0.81 -0.34,0.98 0.14,0.44 0.47,0.55 0.88,0.43 0.4,-0.11 0.45,-0.45 0.45,-0.79 0,-1.17 0.07,-2.35 -0.22,-3.5 -0.36,-1.41 -0.46,-2.89 -1.18,-4.21 -1.27,-2.35 -3.09,-4.28 -4.82,-6.29 -0.5,-0.58 -0.84,-1.3 -1.55,-1.7 -0.82,-0.47 -1.34,-1.22 -1.49,-2.1 -0.41,-2.32 -1.87,-3.75 -3.83,-4.83 -0.55,-0.3 -1.09,-0.62 -1.64,-0.92 -0.21,-0.11 -0.43,-0.12 -0.62,0.04 -0.2,0.17 -0.17,0.37 -0.1,0.6 0.16,0.54 0.38,1.04 0.69,1.49 z"
             id="path85" />
          <polygon
             class="cls-3"
             points=""
             id="polygon85" />
          <path
             class="cls-6"
             d="m 80.63,128.72 c -2.56,0.15 -4.66,1.34 -6.55,2.96 -0.17,0.15 -0.33,0.32 -0.25,0.56 0.09,0.26 0.33,0.25 0.55,0.27 1.06,0.09 2.06,-0.17 3.04,-0.52 3.48,-1.25 7.06,-1.51 10.72,-1.11 1.1,0.12 2.21,0.18 3.31,-0.12 0.34,-0.09 0.66,-0.15 0.66,-0.6 -0.61,-0.28 -1.29,-0.3 -1.93,-0.47 -3.14,-0.83 -6.33,-1.17 -9.57,-0.98 z"
             id="path86" />
          <path
             class="cls-7"
             d="m 87.56,134.07 c -0.38,-0.06 -0.69,0.24 -0.69,0.65 0,0.4 0.24,0.61 0.61,0.63 0.39,0.02 0.59,-0.23 0.64,-0.6 0,-0.37 -0.18,-0.62 -0.56,-0.69 z"
             id="path87" />
          <path
             class="cls-7"
             d="m 133.69,134.9 c -0.42,0.04 -0.56,0.33 -0.56,0.68 0,0.39 0.25,0.58 0.6,0.6 0.38,-0.02 0.66,-0.29 0.67,-0.62 0,-0.4 -0.3,-0.69 -0.7,-0.66 z"
             id="path88" />
          <path
             class="cls-2"
             d="m 213.52,281.24 0.06,-0.05 c 0,0 -0.04,0.03 -0.06,0.05 z"
             id="path89" />
          <path
             class="cls-2"
             d="m 213.52,281.24 c 0,0 0.04,-0.03 0.06,-0.05 l 1.78,-1.48 -1.85,1.53 c 0,0 0,0 0,0 z"
             id="path90" />
          <path
             class="cls-2"
             d="m 46.27,237.98 c 1.61,-0.28 2.86,-0.83 3.76,-1.72 -0.91,0.89 -2.16,1.44 -3.76,1.72 -6.18,1.07 -12.32,2.31 -18.48,3.49 v 0 c 6.16,-1.18 12.3,-2.41 18.48,-3.49 z"
             id="path91" />
          <path
             class="cls-2"
             d="m 52,231.05 c 0.13,-0.7 0.26,-1.39 0.37,-2.09 v 0 c -0.11,0.7 -0.24,1.4 -0.37,2.09 z"
             id="path92" />
          <path
             class="cls-2"
             d="m 52.85,222.98 c -0.08,0.47 -0.15,0.95 -0.17,1.43 0.02,-0.48 0.09,-0.95 0.17,-1.43 z"
             id="path93" />
          <path
             class="cls-2"
             d="m 52.38,228.96 v 0 c 0.12,-0.77 0.22,-1.53 0.28,-2.31 -0.05,0.77 -0.15,1.54 -0.28,2.31 z"
             id="path94" />
          <path
             class="cls-2"
             d="m 53.2,221.46 c 0.4,-1.04 1.11,-1.43 2.59,-1.61 0,0 0.02,0 0.03,0 -0.01,0 -0.02,0 -0.03,0 -1.48,0.19 -2.19,0.58 -2.59,1.61 z"
             id="path95" />
          <path
             class="cls-2"
             d="m 109.37,250.34 c 0,0 0.03,-0.04 0.04,-0.07 -0.01,0.02 -0.03,0.04 -0.04,0.06 v 0 z"
             id="path96" />
          <path
             class="cls-2"
             d="m 109.75,249.7 c -0.06,0.1 -0.12,0.2 -0.17,0.29 0.06,-0.1 0.12,-0.2 0.17,-0.29 z"
             id="path97" />
          <path
             class="cls-2"
             d="m 109.94,249.36 c -0.04,0.07 -0.08,0.14 -0.12,0.21 0.04,-0.07 0.08,-0.14 0.12,-0.21 z"
             id="path98" />
          <path
             class="cls-2"
             d="m 114.84,246 c -0.06,0.01 -0.11,0.02 -0.17,0.04 0.06,-0.01 0.11,-0.02 0.17,-0.04 z"
             id="path99" />
          <path
             class="cls-2"
             d="m 113.44,246.35 c 0,0 -0.09,0.03 -0.13,0.04 0.04,-0.01 0.09,-0.03 0.13,-0.04 z"
             id="path100" />
          <path
             class="cls-2"
             d="m 114.98,245.97 c 0,0 -0.05,0 -0.07,0.02 0.02,0 0.05,-0.01 0.07,-0.02 z"
             id="path101" />
          <path
             class="cls-2"
             d="m 142.79,90.13 c 0,0 0.03,-0.01 0.05,-0.02 -0.02,0 -0.03,0.01 -0.05,0.02 z"
             id="path102" />
          <path
             class="cls-2"
             d="m 142.92,90.09 c 0,0 0.03,-0.01 0.04,-0.02 -0.01,0 -0.03,0.01 -0.04,0.02 z"
             id="path103" />
          <path
             class="cls-2"
             d="m 114.12,246.16 c 0,0 -0.09,0.02 -0.13,0.03 0.04,-0.01 0.09,-0.02 0.13,-0.03 z"
             id="path104" />
          <path
             class="cls-2"
             d="m 113.66,246.28 c 0,0 -0.08,0.02 -0.13,0.04 0.04,-0.01 0.08,-0.02 0.13,-0.04 z"
             id="path105" />
          <path
             class="cls-2"
             d="m 114.6,246.05 c -0.05,0.01 -0.1,0.02 -0.15,0.03 0.05,-0.01 0.1,-0.02 0.15,-0.03 z"
             id="path106" />
          <path
             class="cls-2"
             d="m 142.52,90.2 c 0,0 0.03,0 0.05,0 -0.02,0 -0.03,0 -0.05,0 z"
             id="path107" />
          <path
             class="cls-2"
             d="m 142.66,90.17 c 0,0 0.03,0 0.05,-0.01 -0.02,0 -0.03,0.01 -0.05,0.01 z"
             id="path108" />
          <path
             class="cls-2"
             d="m 142.39,90.21 c 0,0 0.03,0 0.05,0 -0.02,0 -0.03,0 -0.05,0 z"
             id="path109" />
          <path
             class="cls-2"
             d="m 142.25,90.22 c 0,0 0.03,0 0.05,0 -0.02,0 -0.03,0 -0.05,0 z"
             id="path110" />
          <path
             class="cls-2"
             d="m 114.35,246.1 c 0,0 -0.09,0.02 -0.14,0.03 0.05,-0.01 0.09,-0.02 0.14,-0.03 z"
             id="path111" />
          <path
             class="cls-2"
             d="m 141.99,90.22 c 0,0 -0.02,0 -0.02,0 -0.12,0 -0.25,-0.01 -0.37,-0.02 0.12,0 0.25,0.01 0.37,0.02 z"
             id="path112" />
          <path
             class="cls-2"
             d="m 113.89,246.22 c 0,0 -0.09,0.02 -0.13,0.03 0.04,-0.01 0.09,-0.02 0.13,-0.03 z"
             id="path113" />
          <path
             class="cls-2"
             d="m 142.15,90.23 c 0,0 -0.03,0 -0.05,0 0.02,0 0.03,0 0.05,0 z"
             id="path114" />
          <path
             class="cls-2"
             d="m 134.13,210.84 v 0 c -0.4,0.28 -0.8,0.55 -1.21,0.82 v 0 c 0.41,-0.27 0.81,-0.54 1.21,-0.82 z"
             id="path115" />
          <path
             class="cls-2"
             d="m 140.47,215.15 c -0.12,0.47 -0.23,0.94 -0.32,1.42 -0.15,0.8 -0.27,1.6 -0.34,2.4 v 0 c 0.08,-0.8 0.19,-1.6 0.34,-2.4 0.09,-0.48 0.2,-0.95 0.32,-1.42 z"
             id="path116" />
          <path
             class="cls-2"
             d="m 147.39,226.26 c 0,0 0,-0.01 0,-0.02 0,0 0,0.01 0,0.02 z"
             id="path117" />
          <path
             class="cls-2"
             d="m 147.02,225.36 c 0.1,0.16 0.19,0.33 0.26,0.52 0,0 0,0 0,0 0,0 0,0 0,0 -0.07,-0.19 -0.16,-0.36 -0.26,-0.52 z"
             id="path118" />
          <path
             class="cls-2"
             d="m 147.43,226.45 c 0,0 0,-0.03 0,-0.04 0,0.01 0,0.03 0,0.04 z"
             id="path119" />
          <path
             class="cls-2"
             d="m 142.56,223.36 c 0,-0.06 0,-0.12 -0.01,-0.18 0,0.06 0,0.12 0.01,0.18 z"
             id="path120" />
          <path
             class="cls-2"
             d="m 142.54,222.95 c 0,-0.05 0,-0.1 0,-0.15 0,0.05 0,0.1 0,0.15 z"
             id="path121" />
          <path
             class="cls-2"
             d="m 147.49,226.75 c 0,0 -0.01,-0.07 -0.02,-0.11 0,0.04 0.01,0.07 0.02,0.11 z"
             id="path122" />
          <path
             class="cls-2"
             d="m 142.54,221.48 c 0,0.19 0,0.37 0,0.56 0,0.19 0,0.38 0,0.56 0,-0.19 0,-0.38 0,-0.56 0,-0.19 0,-0.37 0,-0.56 z"
             id="path123" />
          <path
             class="cls-2"
             d="m 147.34,226.09 c 0,0 0,-0.03 -0.01,-0.04 0,0.01 0,0.03 0.01,0.04 z"
             id="path124" />
          <path
             class="cls-2"
             d="m 179.81,103.78 c 0,0 -0.01,0.02 -0.02,0.04 h 0.02 c 0,0 0,-0.02 0,-0.04 z"
             id="path125" />
          <polygon
             class="cls-2"
             points=""
             id="polygon125" />
          <path
             class="cls-2"
             d="m 64.34,225.76 c 0.29,0.13 0.58,0.26 0.86,0.39 -0.29,-0.13 -0.57,-0.26 -0.86,-0.39 z"
             id="path126" />
          <path
             class="cls-2"
             d="m 63.27,225.28 c 0.3,0.13 0.59,0.26 0.89,0.4 -0.3,-0.13 -0.59,-0.26 -0.89,-0.4 z"
             id="path127" />
          <path
             class="cls-2"
             d="m 62.35,224.88 c 0.28,0.12 0.56,0.24 0.85,0.37 -0.28,-0.12 -0.56,-0.25 -0.85,-0.37 z"
             id="path128" />
          <path
             class="cls-2"
             d="m 173.86,272.02 c 1.53,0.13 3.04,0.37 4.54,0.7 v 0 c -1.49,-0.33 -3,-0.57 -4.54,-0.7 z"
             id="path129" />
          <path
             class="cls-2"
             d="m 155.95,286.22 c 0.09,-0.04 0.17,-0.07 0.26,-0.11 -0.09,0.04 -0.17,0.07 -0.26,0.11 z"
             id="path130" />
          <path
             class="cls-2"
             d="m 155.65,286.33 c 0.09,-0.03 0.17,-0.07 0.26,-0.1 -0.09,0.04 -0.17,0.07 -0.26,0.1 z"
             id="path131" />
          <path
             class="cls-2"
             d="m 153.97,284.73 c 0,0.05 0,0.1 0,0.15 0,-0.05 0,-0.1 0,-0.15 z"
             id="path132" />
          <path
             class="cls-2"
             d="m 153.97,285.21 c 0,0 0,0 0,0.01 z"
             id="path133" />
          <path
             class="cls-2"
             d="m 153.98,285.39 c 0,0 0,-0.01 0,-0.02 0,0 0,0 0,0 0,0 0,0 0,0.01 z"
             id="path134" />
          <path
             class="cls-2"
             d="m 170.18,271.94 c -0.09,0 -0.17,0 -0.24,0 0.07,0 0.15,0 0.24,0 0.36,-0.02 0.71,-0.02 1.06,-0.03 -0.35,0 -0.71,0.01 -1.06,0.03 z"
             id="path135" />
          <path
             class="cls-2"
             d="m 155.56,286.37 c 0,0 0.04,-0.01 0.06,-0.02 -0.5,0.18 -1.07,0.05 -1.4,-0.36 -0.12,-0.15 -0.19,-0.32 -0.22,-0.48 0.15,0.79 0.77,1.15 1.56,0.87 z"
             id="path136" />
          <path
             class="cls-2"
             d="m 156.49,285.98 c 0,0 0.01,0 0.02,0 0,0 -0.01,0 -0.02,0 z"
             id="path137" />
          <path
             class="cls-2"
             d="M 153.97,285.05 Z"
             id="path138" />
          <path
             class="cls-4"
             d="m 139.38,48.04 c 0.51,0.47 1.07,0.89 1.7,1.19 0,0 0,0 0.01,0 0.58,0.28 1.16,0.57 1.74,0.85 0.79,0.38 1.57,0.76 2.36,1.14 0.48,0.23 0.97,0.46 1.45,0.69 0.03,0.01 0.05,0.03 0.08,0.04 0.07,0.03 0.14,0.07 0.21,0.1 0.65,0.36 1.33,0.66 2.01,0.94 1.43,0.59 2.83,1.23 4.19,1.95 0.82,0.43 1.33,0.59 2.12,1.08 l 0.58,0.35 c 0,0 11.64,6.9 14.29,12.83 2.66,5.93 1.98,5.97 3.32,8.78 0.53,1.12 0.86,1.76 1.07,2.12 0.19,0.33 0.63,0.76 0.88,0.98 0.65,0.57 0.54,0.76 0.54,0.76 9.55,0 17.95,0 27.68,0 0.26,0 0.52,0.01 0.78,0 0.85,-0.06 1.37,-0.5 1.5,-1.34 0.07,-0.43 0.06,-0.71 0.06,-1.15 0,-9.82 0.01,-18.62 0,-28.44 l -0.02,-14.38 c 0,-0.53 -0.31,-1 -0.77,-1.23 l -14.6,-4.31 -50.3,-14.85 c -2.38,-0.7 -4.9,-0.7 -7.28,0 L 24.17,48.26 c -5.88,1.73 -9.93,7.18 -9.93,13.37 v 123.15 c 0,20.43 4.89,39.7 13.55,56.69 6.16,-1.18 12.3,-2.41 18.48,-3.49 1.61,-0.28 2.86,-0.83 3.76,-1.72 0.85,-0.84 1.4,-1.98 1.66,-3.5 0.08,-0.49 0.17,-0.98 0.26,-1.46 0.02,-0.08 0.03,-0.16 0.05,-0.24 0.13,-0.7 0.26,-1.39 0.37,-2.09 0.12,-0.77 0.22,-1.53 0.28,-2.31 0,-0.08 0.01,-0.16 0.02,-0.25 0.03,-0.5 0.03,-0.99 0.01,-1.5 0,-0.17 0,-0.33 0,-0.5 0.02,-0.48 0.09,-0.95 0.17,-1.43 0.03,-0.16 0.05,-0.32 0.08,-0.48 0.06,-0.35 0.13,-0.65 0.22,-0.91 0.01,-0.04 0.03,-0.09 0.05,-0.13 0.4,-1.04 1.11,-1.43 2.59,-1.61 0,0 0.02,0 0.03,0 0.15,-0.01 0.6,-0.03 0.7,-0.05 0.46,-0.07 1.07,-0.36 1.13,-0.85 0.4,-3.76 0.39,-3.42 0.4,-3.76 0.11,-2.9 0.19,-4.58 -0.23,-6.54 -0.45,-2.14 -1.5,-4.62 -3.72,-9.4 -0.72,-1.54 -1.3,-3.37 -1.77,-5.28 -1.51,-6.18 -1.81,-13.21 -1.73,-14.28 0.02,-0.25 -0.03,-0.25 -0.09,-0.5 -0.17,-0.66 -0.9,-0.84 -1.73,-0.98 l -0.32,-0.06 c -0.5,-0.09 -1.02,-0.13 -1.53,-0.15 -0.06,0 -0.12,0 -0.18,-0.01 -0.06,0 -0.11,0 -0.17,-0.01 -0.05,0 -0.1,-0.01 -0.15,-0.02 -0.05,0 -0.11,-0.01 -0.16,-0.02 -0.05,0 -0.1,-0.01 -0.15,-0.02 -0.05,0 -0.11,-0.01 -0.16,-0.02 -0.05,0 -0.1,-0.02 -0.14,-0.02 -0.05,0 -0.1,-0.02 -0.16,-0.03 -0.05,0 -0.09,-0.02 -0.14,-0.03 -0.05,0 -0.1,-0.02 -0.15,-0.03 -0.05,-0.01 -0.09,-0.02 -0.14,-0.03 -0.05,-0.01 -0.1,-0.02 -0.14,-0.03 -0.04,-0.01 -0.09,-0.02 -0.13,-0.04 -0.05,-0.01 -0.09,-0.03 -0.14,-0.04 -0.04,-0.01 -0.09,-0.03 -0.13,-0.04 -0.05,-0.01 -0.09,-0.03 -0.14,-0.04 -0.04,-0.01 -0.08,-0.03 -0.12,-0.04 -0.04,-0.02 -0.09,-0.03 -0.13,-0.05 -0.04,-0.02 -0.08,-0.03 -0.12,-0.05 -0.04,-0.02 -0.09,-0.03 -0.13,-0.05 -0.04,-0.02 -0.08,-0.04 -0.12,-0.05 -0.04,-0.02 -0.08,-0.04 -0.13,-0.06 -0.04,-0.02 -0.07,-0.04 -0.11,-0.06 -0.04,-0.02 -0.08,-0.04 -0.12,-0.06 -0.04,-0.02 -0.07,-0.04 -0.11,-0.06 -0.04,-0.02 -0.08,-0.04 -0.12,-0.07 -0.04,-0.02 -0.07,-0.04 -0.11,-0.07 -0.04,-0.02 -0.08,-0.05 -0.11,-0.07 -0.03,-0.02 -0.07,-0.05 -0.1,-0.07 -0.04,-0.03 -0.07,-0.05 -0.11,-0.08 -0.03,-0.02 -0.06,-0.05 -0.1,-0.07 -0.04,-0.03 -0.07,-0.05 -0.11,-0.08 -0.03,-0.02 -0.06,-0.05 -0.09,-0.08 -0.04,-0.03 -0.07,-0.06 -0.1,-0.09 -0.03,-0.03 -0.06,-0.05 -0.09,-0.08 -0.03,-0.03 -0.07,-0.06 -0.1,-0.09 -0.03,-0.03 -0.06,-0.06 -0.08,-0.08 -0.03,-0.03 -0.07,-0.06 -0.1,-0.1 -0.03,-0.03 -0.05,-0.06 -0.08,-0.09 -0.03,-0.03 -0.06,-0.07 -0.09,-0.1 -0.03,-0.03 -0.05,-0.06 -0.08,-0.09 -0.03,-0.04 -0.06,-0.07 -0.09,-0.11 -0.03,-0.03 -0.05,-0.06 -0.07,-0.1 -0.03,-0.04 -0.06,-0.07 -0.09,-0.11 -0.02,-0.03 -0.05,-0.07 -0.07,-0.1 -0.03,-0.04 -0.05,-0.08 -0.08,-0.11 -0.03,-0.04 -0.05,-0.08 -0.07,-0.11 -0.02,-0.04 -0.05,-0.08 -0.07,-0.11 -0.03,-0.04 -0.05,-0.08 -0.07,-0.13 -0.02,-0.04 -0.04,-0.07 -0.07,-0.11 -0.03,-0.05 -0.05,-0.09 -0.07,-0.14 -0.02,-0.04 -0.04,-0.07 -0.06,-0.11 -0.02,-0.05 -0.05,-0.1 -0.07,-0.15 -0.02,-0.04 -0.04,-0.07 -0.05,-0.11 -0.03,-0.06 -0.05,-0.12 -0.08,-0.17 -0.01,-0.03 -0.03,-0.06 -0.04,-0.1 -0.03,-0.07 -0.06,-0.15 -0.09,-0.23 0,-0.02 -0.01,-0.03 -0.02,-0.05 -0.04,-0.09 -0.07,-0.19 -0.11,-0.28 0,0 0,0 0,0 -0.07,-0.2 -0.14,-0.4 -0.2,-0.61 -0.2,-0.69 -0.39,-1.38 -0.58,-2.07 -0.18,-0.69 -0.36,-1.39 -0.53,-2.08 -0.15,-0.63 -0.32,-1.25 -0.51,-1.87 -0.55,-1.78 -1.29,-3.49 -2.25,-5.09 -0.3,-0.5 -0.62,-0.99 -0.97,-1.46 -0.36,-0.49 -0.68,-1.01 -0.96,-1.55 -0.28,-0.54 -0.52,-1.1 -0.72,-1.68 -0.41,-1.19 -0.69,-2.41 -0.52,-3.68 0.14,-1.02 0.16,-2.05 0.21,-3.08 0.09,-2.02 -0.27,-3.95 -1.14,-5.78 -0.27,-0.57 -0.5,-1.15 -0.68,-1.74 -0.46,-1.5 -0.6,-3.04 -0.46,-4.61 0.06,-0.61 0.16,-1.22 0.3,-1.83 0.33,-1.42 0.07,-2.67 -0.76,-3.87 -0.42,-0.61 -0.82,-1.22 -1.22,-1.85 -0.4,-0.62 -0.78,-1.25 -1.17,-1.87 -0.13,-0.21 -0.25,-0.42 -0.36,-0.63 -0.39,-0.76 -0.67,-1.58 -0.86,-2.43 -0.07,-0.35 -0.12,-0.69 -0.16,-1.03 -0.13,-1.31 0,-2.6 0.31,-3.89 0.12,-0.51 0.21,-1.01 0.26,-1.5 0.18,-1.85 -0.2,-3.6 -1.23,-5.28 -0.12,-0.19 -0.23,-0.38 -0.34,-0.57 -0.03,-0.05 -0.06,-0.11 -0.09,-0.16 0,0 -0.01,-0.02 -0.01,-0.03 v 0 c 0,0 0,0 0,0 -0.31,-0.61 -0.59,-1.22 -0.82,-1.84 0,0 0,0 0,0 -0.03,-0.07 -0.05,-0.14 -0.08,-0.22 0,0 0,-0.01 0,-0.02 -0.02,-0.07 -0.05,-0.13 -0.07,-0.2 0,-0.01 0,-0.02 -0.01,-0.03 -0.02,-0.06 -0.04,-0.12 -0.06,-0.19 0,-0.02 -0.01,-0.03 -0.02,-0.05 -0.02,-0.06 -0.04,-0.12 -0.05,-0.18 0,-0.02 -0.01,-0.04 -0.02,-0.06 -0.02,-0.06 -0.03,-0.12 -0.05,-0.17 0,-0.02 -0.01,-0.04 -0.02,-0.06 -0.02,-0.06 -0.03,-0.11 -0.04,-0.17 0,-0.02 -0.01,-0.05 -0.02,-0.07 -0.01,-0.05 -0.03,-0.11 -0.04,-0.16 0,-0.02 -0.01,-0.05 -0.02,-0.07 -0.01,-0.05 -0.02,-0.1 -0.03,-0.15 0,-0.03 -0.01,-0.06 -0.02,-0.08 -0.01,-0.05 -0.02,-0.1 -0.03,-0.15 0,-0.03 -0.01,-0.06 -0.02,-0.08 0,-0.05 -0.02,-0.09 -0.02,-0.14 0,-0.03 -0.01,-0.07 -0.02,-0.1 0,-0.05 -0.01,-0.09 -0.02,-0.14 0,-0.03 -0.01,-0.07 -0.02,-0.1 0,-0.05 -0.01,-0.09 -0.02,-0.14 0,-0.03 0,-0.07 -0.01,-0.1 0,-0.04 0,-0.09 -0.01,-0.13 0,-0.04 0,-0.07 -0.01,-0.11 0,-0.04 0,-0.08 0,-0.13 0,-0.04 0,-0.08 0,-0.12 0,-0.04 0,-0.09 0,-0.13 0,-0.04 0,-0.08 0,-0.11 0,-0.04 0,-0.09 0,-0.13 0,-0.04 0,-0.08 0,-0.11 0,-0.04 0,-0.07 0,-0.11 0,-0.05 0,-0.09 0,-0.14 0,-0.02 0,-0.05 0,-0.07 0,-0.06 0,-0.12 0,-0.17 0,-0.01 0,-0.02 0,-0.03 0.02,-0.48 0.09,-0.97 0.19,-1.47 0.61,-2.91 2.23,-5 5.04,-6.13 0.33,-0.13 0.64,-0.29 0.93,-0.46 0.88,-0.52 1.63,-1.21 2.32,-1.98 1.31,-1.46 2.37,-3.05 3.2,-4.76 0,-0.02 0.02,-0.03 0.02,-0.05 0.05,-0.1 0.1,-0.2 0.14,-0.3 0,0 0,0 0,0 0.04,-0.08 0.07,-0.16 0.11,-0.24 0.01,-0.02 0.02,-0.04 0.03,-0.07 0.03,-0.07 0.06,-0.13 0.09,-0.2 0.02,-0.04 0.03,-0.07 0.05,-0.11 0.02,-0.05 0.05,-0.11 0.07,-0.16 0.02,-0.05 0.04,-0.1 0.06,-0.15 0.03,-0.07 0.05,-0.13 0.08,-0.2 0.02,-0.04 0.03,-0.08 0.05,-0.11 0.03,-0.09 0.07,-0.18 0.1,-0.27 0,-0.02 0.01,-0.03 0.02,-0.05 0.04,-0.1 0.08,-0.2 0.11,-0.3 0,0 0,-0.01 0,-0.02 0.31,-0.86 0.57,-1.73 0.79,-2.64 0.06,-0.25 0.12,-0.5 0.18,-0.75 0.94,-3.76 2.08,-7.46 3.34,-11.11 1.07,-3.08 2.16,-6.16 3.96,-8.93 0.29,-0.45 0.59,-0.89 0.9,-1.32 0.79,-1.12 1.62,-2.2 2.48,-3.27 0.33,-0.42 0.67,-0.83 1.01,-1.24 1.78,-2.16 3.85,-3.96 6.35,-5.29 1.44,-0.76 2.74,-1.75 4.04,-2.74 1.95,-1.49 3.67,-3.21 5.42,-4.91 0.52,-0.51 1.08,-0.97 1.66,-1.39 0.1,-0.07 0.19,-0.14 0.29,-0.2 0.2,-0.13 0.4,-0.26 0.6,-0.39 0.2,-0.12 0.41,-0.24 0.62,-0.35 0.53,-0.28 1.08,-0.53 1.65,-0.74 2.6,-0.97 5.14,-2.09 7.67,-3.24 1.76,-0.8 3.53,-1.55 5.33,-2.2 1.81,-0.65 3.65,-1.19 5.56,-1.57 2.05,-0.41 4.13,-0.57 6.19,-0.84 0.54,-0.07 1.09,-0.15 1.63,-0.24 0.5,-0.08 1,-0.15 1.5,-0.21 0.93,-0.1 1.86,-0.16 2.79,-0.16 0.86,0 1.72,0.03 2.58,0.1 1.52,0.13 3.05,0.18 4.57,0.18 0.22,0 0.44,0 0.65,0 0.52,0 1.04,-0.01 1.56,-0.01 0.52,0 1.04,0 1.56,0.01 0.69,0.01 1.39,0.03 2.08,0.07 1.04,0.06 2.08,0.14 3.12,0.27 0.98,0.12 1.94,0.31 2.88,0.55 0.19,0.05 0.37,0.1 0.56,0.15 1.86,0.52 3.65,1.24 5.4,2.13 0.52,0.26 1.04,0.53 1.55,0.8 1.4,0.73 2.8,1.47 4.24,2.13 0.45,0.21 0.93,0.38 1.37,0.6 0.02,0 0.04,0.02 0.06,0.03 1.26,0.57 2.43,1.31 3.44,2.25 l 2.75,2.56 z"
             id="path139" />
          <g
             id="g143">
            <path
               class="cls-7"
               d="m 246.47,239.08 c -0.03,-2.93 0.02,-5.71 0.02,-8.69 0,-0.61 -0.33,-1.13 -0.81,-1.43 -0.26,-0.16 -0.56,-0.25 -0.88,-0.25 -5.8,-0.03 -7.48,1.83 -7.6,1.97 0,0.05 0,0.1 0,0.15 V 232 c 0,2.37 0.01,4.72 0.02,7.06 0.01,4.71 0.03,9.39 0.04,14.14 0,0.76 0,1.52 0,2.28 v 0 c 3.29,-4.78 6.61,-10.4 9.22,-15.63 0,-0.25 0,-0.51 0,-0.76 z"
               id="path140" />
            <path
               class="cls-7"
               d="m 172.73,249.58 c 0,3.12 0,6.23 0,9.35 0,2.68 -0.01,5.99 0,8.67 0,1.3 0.47,1.78 1.72,1.89 0,0 10.18,0.66 25.2,9.85 0.46,0.28 0.84,0.83 1.47,0.52 0,0 0,0 0,0 0.12,-0.06 0.21,-0.13 0.28,-0.21 0.3,-0.34 0.19,-0.83 0.19,-1.27 0,-7.03 0,-14.06 0,-21.09 0,-1.58 0,-3.15 0,-4.73 v -1.95 c 0,-8.53 -3.7,-16.66 -10.24,-22.13 -1.84,-1.54 -3.14,-2.29 -3.14,-2.29 -7.36,-4.81 -13.81,-4.58 -13.81,-4.58 -1.14,0 -1.63,0.46 -1.69,1.58 -0.02,0.29 0,0.59 0,0.88 v 21.07 c 0,1.48 0,2.96 0,4.44 z"
               id="path141" />
            <path
               class="cls-7"
               d="m 233.68,240.86 c 0,-5.51 0,-10.56 0,-16.25 v -1.35 c 0,-0.94 -0.78,-1.69 -1.72,-1.65 -4.01,0.17 -5.67,0.87 -9.28,2.15 0,0 -2.32,14.15 -18.05,28.18 v 1.5 c 0,0.77 0,1.54 0,2.3 0.02,7.58 0,15 0,22.61 0,0.22 -0.01,0.44 0,0.66 0.08,0.91 0.67,1.18 1.46,0.68 0.22,-0.14 0.41,-0.32 0.62,-0.46 6.03,-4.03 11.02,-5.62 16.95,-7.48 0.44,-0.34 0.86,-0.69 1.24,-1.08 2.94,-3.09 6.06,-6.5 8.67,-9.88 0,-0.63 0.03,-1.26 0.09,-1.9 0,-5.1 0,-10.2 0,-15.29 0,-0.93 0,-1.84 0,-2.73 z"
               id="path142" />
            <path
               class="cls-7"
               d="m 206.72,282.22 c -2.21,1.34 -4.15,1.41 -6.38,0.06 -3.49,-2.11 -7.04,-4.11 -10.76,-5.77 -0.45,-0.2 -0.91,-0.4 -1.37,-0.59 -0.6,-0.25 -1.2,-0.49 -1.8,-0.72 -1.06,-0.4 -2.13,-0.78 -3.2,-1.14 -0.2,-0.07 -0.4,-0.13 -0.6,-0.19 -1.39,-0.44 -2.8,-0.83 -4.21,-1.15 v 0 c -1.49,-0.33 -3,-0.57 -4.54,-0.7 -0.17,-0.01 -0.35,-0.03 -0.52,-0.04 -0.69,-0.05 -1.39,-0.07 -2.1,-0.07 -0.35,0 -0.71,0.01 -1.06,0.03 -0.09,0 -0.17,0 -0.24,0 -0.21,0 -0.33,-0.02 -0.4,-0.09 -0.1,-0.1 -0.1,-0.29 -0.1,-0.66 0,-2.02 0.05,-4.04 0.05,-6.07 0.02,-5.88 0.04,-11.77 0.06,-17.65 0.02,-5.26 0.03,-10.52 0.05,-15.78 0,-0.22 -0.01,-0.44 0,-0.66 0.03,-0.38 -0.17,-0.55 -0.49,-0.76 -1.93,-1.25 -5.03,-1.57 -7.02,-1.63 -1.05,-0.03 -1.91,0.81 -1.91,1.86 v 0.1 c 0,3.55 0,7.11 0,10.66 0,11.67 0,23.34 0,35.01 v 0.05 c 0,0.68 0.69,1.16 1.32,0.9 11.92,-4.78 29.1,2.11 29.1,2.11 0,0 0.03,0.01 0.08,0.03 0.08,0.03 0.15,0.06 0.23,0.09 0.01,0 0.03,0.01 0.04,0.02 0.16,0.06 0.31,0.13 0.47,0.2 0.03,0.01 0.06,0.02 0.08,0.03 0.69,0.29 1.38,0.59 2.07,0.9 0,0 0,0 0,0 0.77,0.35 1.57,0.73 2.22,1.09 0,0 -3.31,-1.04 -4.92,-1.44 -16.54,-4.16 -27.48,-1.18 -31.34,0.25 -0.75,0.28 -1.55,-0.28 -1.55,-1.08 v -0.87 c 0,-12.24 -0.08,-23.2 -0.08,-35.44 0,0 0,-0.02 0,-0.03 0,0 0,0 0,0 v -1.02 c 0,-0.42 -0.3,-0.78 -0.71,-0.87 l -2.28,-0.47 c -0.48,-0.1 -0.92,0.27 -0.92,0.75 v 0.75 c 0,7.08 0,14.16 0,21.24 0,7.08 0,14.16 0,21.24 0,0 0,0 0,0 0,0.05 0,0.1 0,0.15 0,0.06 0,0.11 0,0.17 0,0 0,0 0,0 0,0.05 0,0.11 0,0.16 0,0 0,0 0,0.01 0,0.05 0,0.1 0.01,0.15 0,0 0,0.01 0,0.02 0,0.04 0.01,0.07 0.02,0.1 0.03,0.17 0.1,0.33 0.22,0.48 0.33,0.41 0.9,0.54 1.4,0.36 0.01,0 0.02,0 0.03,-0.01 0.09,-0.03 0.17,-0.07 0.26,-0.1 0.01,0 0.02,0 0.04,-0.01 0.09,-0.04 0.17,-0.07 0.26,-0.11 0.09,-0.04 0.19,-0.08 0.28,-0.12 0,0 0.01,0 0.02,0 0.09,-0.04 0.19,-0.08 0.28,-0.12 1.31,-0.52 2.62,-0.99 3.95,-1.4 0.22,-0.07 0.44,-0.14 0.67,-0.2 5.55,-1.64 11.28,-2.34 17.11,-2.52 5.32,-0.16 10.1,0.04 15.3,1.1 2.16,0.44 3.85,1.07 5.93,2.03 2.49,1.15 4.36,1.28 6.81,-0.08 0,0 2.36,-1.01 5.44,-2.32 0.29,-0.23 0.57,-0.45 0.85,-0.68 v 0 c 0,0 0.05,-0.04 0.05,-0.04 l 0.61,-0.5 1.85,-1.53 c 1.64,-1.4 3.25,-2.83 4.82,-4.31 0.06,-0.05 0.1,-0.1 0.15,-0.14 0,0 0,0 0,0 -7.25,2.66 -13.6,6.95 -13.6,6.95 z"
               id="path143" />
          </g>
          <path
             class="cls-4"
             d="m 258.35,102.53 c 0,0 -0.08,-0.01 -0.12,-0.02 0,0 0,0 -0.01,0 -0.26,-0.02 -0.52,0 -0.77,0 -6.9,0 -15.57,0 -22.47,0 -2.23,0 -3.49,0 -5.72,0 -1.26,0 -1.84,0.57 -1.91,1.79 -0.01,0.22 0,1.53 0,1.75 0,37.33 0,75.22 0,112.56 v 1.13 c 3.55,-0.73 6.3,-0.54 7.99,-0.27 0.95,0.15 1.64,0.98 1.64,1.94 v 5.84 c 0,0 0.33,-0.13 0.97,-0.3 1.46,-0.38 4.51,-0.94 8.8,-0.46 0.25,0.03 0.5,0.06 0.75,0.09 0.92,0.13 1.6,0.92 1.63,1.84 l 0.09,3.56 c 0,0.31 0,0.62 0,0.92 0,0.05 0,1.35 0,1.4 0,0 0.16,-0.29 0.43,-0.84 1.36,-2.74 6.33,-16.41 7.94,-28.46 0,-0.02 0,-0.03 0,-0.05 1.02,-6.56 1.53,-13.29 1.53,-20.19 v -60.71 0 -20.53 c 0,-0.49 -0.34,-0.91 -0.8,-1.01 z"
             id="path144" />
          <path
             class="cls-4"
             d="m 206.03,104.41 c -0.01,-0.3 -0.05,-0.57 -0.11,-0.79 -0.23,-0.8 -0.8,-1.11 -1.9,-1.11 -8.24,0 -14.98,0 -23.22,0 -1.08,0 -1.11,0.01 -0.99,1.12 0,0.05 0.01,0.1 0.02,0.16 0,0.01 0,0.03 0,0.04 0.13,1.35 0.31,3.59 0.48,4.83 0.09,0.67 0.11,1.32 0.05,1.95 -0.01,0.16 -0.03,0.31 -0.05,0.47 -0.02,0.16 -0.05,0.31 -0.08,0.46 -0.05,0.23 -0.1,0.46 -0.16,0.68 -0.35,1.23 -0.95,2.37 -1.74,3.44 v 0 c 0,0 -1,1.85 -0.93,4.47 0.07,2.62 1.19,4.4 -1.22,7.71 -2.15,2.95 -1.32,5.58 -1.32,5.58 l -0.19,-0.33 c 0.2,0.68 0.37,1.43 0.37,2.46 0,2.08 -0.33,4.41 -2.12,8.46 -0.41,0.92 -0.89,1.94 -1.47,3.06 -0.06,0.11 -0.11,0.22 -0.17,0.33 -0.83,1.6 -1.29,3.37 -1.72,5.12 -0.01,0.04 -0.02,0.09 -0.03,0.14 -1,3.98 -3.48,12.62 -4.44,16.5 0,0 0,0.02 0,0.03 -0.84,3.36 -1.26,4.06 -2.62,7.29 -0.62,1.46 -1.28,2.07 -2.22,2.97 -0.7,0.67 -1.3,1 -2.33,0.97 -1.1,-0.03 -1.02,-0.02 -1.28,1.15 -0.25,1.18 -0.51,3.12 -0.59,4.32 -0.02,0.3 -0.05,0.61 -0.08,0.91 0,0.02 0,0.05 0,0.07 -0.01,0.12 -0.02,0.25 -0.04,0.37 0,0.05 -0.01,0.1 -0.02,0.15 -0.01,0.1 -0.02,0.19 -0.03,0.29 0,0.06 -0.01,0.12 -0.02,0.18 -0.01,0.09 -0.02,0.17 -0.03,0.26 0,0.06 -0.02,0.13 -0.03,0.19 -0.01,0.08 -0.02,0.16 -0.03,0.25 0,0.07 -0.02,0.13 -0.03,0.2 -0.01,0.08 -0.02,0.16 -0.04,0.24 -0.01,0.07 -0.02,0.14 -0.03,0.2 -0.01,0.08 -0.02,0.15 -0.04,0.23 -0.01,0.07 -0.02,0.14 -0.03,0.21 -0.01,0.08 -0.03,0.15 -0.04,0.23 -0.01,0.07 -0.02,0.14 -0.04,0.21 -0.01,0.08 -0.03,0.15 -0.04,0.23 -0.01,0.07 -0.03,0.14 -0.04,0.21 -0.01,0.08 -0.03,0.15 -0.04,0.23 -0.01,0.07 -0.03,0.14 -0.04,0.21 -0.02,0.08 -0.03,0.15 -0.05,0.23 -0.01,0.07 -0.03,0.14 -0.04,0.2 -0.02,0.08 -0.03,0.15 -0.05,0.23 -0.01,0.07 -0.03,0.14 -0.04,0.2 -0.02,0.08 -0.04,0.16 -0.05,0.23 -0.02,0.07 -0.03,0.13 -0.05,0.2 -0.02,0.08 -0.04,0.16 -0.06,0.25 -0.01,0.06 -0.03,0.12 -0.04,0.18 -0.03,0.11 -0.05,0.21 -0.08,0.32 0,0.04 -0.02,0.07 -0.03,0.11 -0.32,1.25 -0.69,2.47 -1.11,3.67 -1.64,4.71 -4.06,9.03 -7.39,12.88 -2.03,2.33 -3.28,4.95 -3.65,7.9 -0.08,0.64 -0.12,1.3 -0.12,1.97 0,0.66 -0.01,1.32 -0.02,1.98 0,0.18 0,0.37 0,0.56 0,0.19 0,0.38 0,0.56 0,0.07 0,0.14 0,0.2 0,0.05 0,0.1 0,0.15 0,0.08 0,0.15 0,0.23 0,0.06 0,0.12 0.01,0.18 0,0.07 0,0.14 0.01,0.2 0.05,0.57 0.54,1.01 1.11,0.99 0.49,-0.02 0.97,-0.06 1.46,-0.06 0.07,0 0.14,0 0.21,0 0.75,0.01 1.3,0.33 1.67,0.88 0.1,0.16 0.19,0.33 0.26,0.52 v 0 c 0.02,0.05 0.04,0.11 0.05,0.16 0,0.01 0,0.03 0.01,0.04 0.02,0.05 0.03,0.11 0.04,0.16 0,0 0,0.01 0,0.02 0.01,0.05 0.02,0.1 0.03,0.15 0,0.01 0,0.03 0,0.04 0.01,0.06 0.02,0.12 0.04,0.19 0,0.04 0.01,0.07 0.02,0.11 0,0.02 0,0.05 0.01,0.07 0.04,0.18 0.07,0.36 0.13,0.53 0.59,1.82 0.94,3.71 1.11,5.62 0.03,0.28 0.06,0.54 0.11,0.79 0,0 0,0 0,0 0,0.04 0.02,0.08 0.02,0.12 0,0.02 0,0.05 0.02,0.07 0.01,0.06 0.03,0.12 0.04,0.18 0,0.01 0,0.02 0,0.03 0.02,0.07 0.04,0.14 0.06,0.21 0,0.02 0,0.03 0.01,0.05 0.02,0.05 0.03,0.1 0.05,0.16 0,0.02 0.02,0.05 0.02,0.07 0.01,0.04 0.03,0.09 0.05,0.13 0,0.03 0.02,0.05 0.03,0.07 0.02,0.04 0.03,0.08 0.05,0.12 0.01,0.03 0.02,0.05 0.03,0.08 0.02,0.04 0.03,0.07 0.05,0.11 0.01,0.02 0.02,0.05 0.04,0.07 0.02,0.04 0.04,0.07 0.05,0.11 0.01,0.02 0.02,0.05 0.04,0.07 0.02,0.04 0.04,0.07 0.06,0.11 0.01,0.02 0.02,0.04 0.04,0.06 0.02,0.04 0.05,0.07 0.07,0.11 0.01,0.02 0.02,0.04 0.03,0.05 0.03,0.05 0.06,0.09 0.1,0.14 0,0 0,0.01 0.01,0.02 0.04,0.05 0.08,0.1 0.12,0.15 0.01,0.01 0.02,0.03 0.03,0.04 0.03,0.04 0.06,0.07 0.09,0.11 0.02,0.02 0.03,0.03 0.05,0.05 0.03,0.03 0.05,0.06 0.08,0.09 0,0 1.02,1.41 3.87,1.83 1.84,0.27 2.76,0.29 3.13,0.29 0.01,0 0.03,0 0.04,0 0.02,0 0.04,0 0.06,0 0,0 0,0 0.01,0 0.07,0 0.11,0 0.11,0 v -0.03 c 0,-0.47 0,-0.87 0,-1.26 0,-2.61 0,-5.22 0,-7.83 0,-0.14 0,-0.27 0.02,-0.41 v -0.28 c 0,-0.64 0.32,-1.22 0.83,-1.58 0.17,-0.12 0.37,-0.22 0.59,-0.28 4.72,-1.35 10.93,0.53 10.93,0.53 l -0.07,-6.13 c -0.01,-0.82 0.58,-1.52 1.39,-1.66 5.71,-0.93 11.47,0.87 11.47,0.87 -6.81,-12.62 3.45,-26.69 4.78,-28.41 0.09,-0.12 0.14,-0.18 0.14,-0.18 0.21,-0.26 0.36,-0.52 0.47,-0.8 0.11,-0.28 0.17,-0.57 0.19,-0.9 0.01,-0.18 0.02,-0.36 0.04,-0.54 0.06,-0.77 0.16,-1.54 0.28,-2.31 0.38,-2.57 0.96,-5.07 1.73,-7.51 0.05,-0.15 0.1,-0.31 0.15,-0.46 0.74,-2.29 1.64,-4.52 2.68,-6.72 1.25,-2.66 2.68,-5.22 4.3,-7.67 0.46,-0.68 0.93,-1.36 1.41,-2.03 0.4,-0.54 0.83,-1.03 1.41,-1.36 0.13,-0.08 0.27,-0.14 0.42,-0.2 0.24,-0.09 0.47,-0.13 0.68,-0.14 0.16,0 0.3,0.02 0.45,0.05 0.56,0.15 0.99,0.62 1.14,1.32 0.06,0.29 0.07,0.59 0.06,0.88 -0.02,0.29 -0.06,0.59 -0.11,0.87 -0.37,2.18 -0.5,4.38 -0.49,6.59 0,0.49 0,0.99 0.02,1.48 0.02,0.99 0.07,1.99 0.19,3.01 0.06,0.51 0.14,1.03 0.23,1.55 0.07,-0.06 0.12,-0.1 0.16,-0.13 0.03,-0.02 0.05,-0.04 0.07,-0.05 0.03,-0.02 0.04,-0.04 0.05,-0.06 0.03,-0.07 0.06,-0.13 0.09,-0.2 0.11,-0.24 0.21,-0.47 0.3,-0.71 0.5,-1.31 0.81,-1.93 1.18,-2.6 0.32,-0.6 0.66,-1.19 1.03,-1.77 0.45,-0.8 0.45,-3.26 0.45,-4.14 -0.02,-20.27 0.06,-40.6 0.06,-60.86 0,-0.29 0.02,-1.69 0,-1.98 z"
             id="path145" />
          <g
             id="g147">
            <path
               class="cls-4"
               d="m 212.78,193.65 c -9.59,-9.08 -5.82,-20.11 -5.82,-20.11 0,0 -6.31,10.17 0.68,19.81 6.45,8.9 16.15,14.4 15.46,25.38 2.75,-14.05 -3.08,-18.23 -10.31,-25.07 z"
               id="path146" />
            <path
               class="cls-5"
               d="m 225.3,208.75 c -0.08,-7.41 -4,-12.15 -8.23,-16.01 -3.77,-3.44 -9.14,-9.77 -10.11,-19.21 0,0 -3.77,11.04 5.82,20.11 7.23,6.84 13.07,11.01 10.31,25.07 0,0 2.3,-2.56 2.21,-9.96 z"
               id="path147" />
          </g>
          <g
             id="g149">
            <path
               class="cls-11"
               d="m 194.04,219.12 c -12.69,-9.73 -5.13,-25.62 -5.13,-25.62 0,0 -7.11,9.66 -6.19,19.18 0.67,7.01 6.24,10.02 12.04,15.12 5.34,4.69 9.56,14.02 8.63,21.17 2.48,-8.97 4.15,-19.51 -9.35,-29.85 z"
               id="path148" />
            <path
               class="cls-12"
               d="m 207.39,231.41 c -1.11,-10.78 -6.1,-13.94 -9.93,-18.1 -5.45,-5.92 -8.72,-10.25 -8.56,-19.81 0,0 -7.56,15.89 5.13,25.62 13.49,10.35 11.83,20.88 9.35,29.85 0,0 5.03,-7.67 4.01,-17.56 z"
               id="path149" />
          </g>
          <g
             id="g153">
            <path
               class="cls-1"
               d="m 210.26,200.01 c 0.37,0.43 0.74,0.85 1.1,1.27 -0.66,-0.81 -1.1,-1.27 -1.1,-1.27 z"
               id="path150" />
            <path
               class="cls-4"
               d="m 200.24,176.95 c -0.47,-6.63 0.25,-12.26 0.25,-12.26 0,0 -3.98,4.41 -7.64,14.67 -3.14,8.81 -3.16,17.95 1.67,26.06 -7.46,-12.93 3.85,-26.41 5.72,-28.48 z"
               id="path151" />
            <path
               class="cls-5"
               d="m 217.86,217.34 c 0.55,-6.63 -4.26,-13.34 -6.5,-16.06 -0.37,-0.42 -0.74,-0.84 -1.1,-1.27 v 0 c 0,0 0,0 0,0 -2.62,-3.05 -5.2,-6.3 -6.99,-10.01 -1.89,-3.91 -2.71,-8.69 -3.02,-13.05 -1.86,2.08 -13.17,15.55 -5.72,28.48 0.8,1.34 1.73,2.65 2.79,3.92 7.06,8.44 10.87,11.48 12.34,20.18 0.12,0.72 0.21,1.42 0.27,2.12 2.74,-1.95 7.27,-6.33 7.93,-14.31 z"
               id="path152" />
            <path
               class="cls-4"
               d="m 207.63,245.45 c 11.62,-12.07 14.88,-22.09 12.71,-30.81 -1.16,-4.66 -5.01,-8.82 -8.98,-13.36 2.24,2.73 7.06,9.43 6.5,16.06 -0.66,7.97 -5.19,12.36 -7.93,14.31 0.65,7.73 -2.3,13.8 -2.3,13.8 z"
               id="path153" />
          </g>
        </g>
      </g>
    </g>
  </g>
</svg>
